<?xml version="1.0" encoding="utf-8" standalone="no"?>
<!DOCTYPE svg PUBLIC "-//W3C//DTD SVG 1.1//EN"
  "http://www.w3.org/Graphics/SVG/1.1/DTD/svg11.dtd">
<svg xmlns:xlink="http://www.w3.org/1999/xlink" width="460.8pt" height="345.6pt" viewBox="0 0 460.8 345.6" xmlns="http://www.w3.org/2000/svg" version="1.1">
 <metadata>
  <rdf:RDF xmlns:dc="http://purl.org/dc/elements/1.1/" xmlns:cc="http://creativecommons.org/ns#" xmlns:rdf="http://www.w3.org/1999/02/22-rdf-syntax-ns#">
   <cc:Work>
    <dc:type rdf:resource="http://purl.org/dc/dcmitype/StillImage"/>
    <dc:date>2023-06-22T21:36:49.311649</dc:date>
    <dc:format>image/svg+xml</dc:format>
    <dc:creator>
     <cc:Agent>
      <dc:title>Matplotlib v3.7.1, https://matplotlib.org/</dc:title>
     </cc:Agent>
    </dc:creator>
   </cc:Work>
  </rdf:RDF>
 </metadata>
 <defs>
  <style type="text/css">*{stroke-linejoin: round; stroke-linecap: butt}</style>
 </defs>
 <g id="figure_1">
  <g id="patch_1">
   <path d="M 0 345.6 
L 460.8 345.6 
L 460.8 0 
L 0 0 
z
" style="fill: #ffffff"/>
  </g>
  <g id="axes_1">
   <g id="patch_2">
    <path d="M 62.61375 241.41375 
L 447.84 241.41375 
L 447.84 29.90175 
L 62.61375 29.90175 
z
" style="fill: #ffffff"/>
   </g>
   <g id="patch_3">
    <path d="M 68.278842 241.41375 
L 79.609026 241.41375 
L 79.609026 39.97375 
L 68.278842 39.97375 
z
" clip-path="url(#pf6c089df77)" style="fill: #1f77b4"/>
   </g>
   <g id="patch_4">
    <path d="M 90.93921 241.41375 
L 102.269393 241.41375 
L 102.269393 102.227968 
L 90.93921 102.227968 
z
" clip-path="url(#pf6c089df77)" style="fill: #1f77b4"/>
   </g>
   <g id="patch_5">
    <path d="M 113.599577 241.41375 
L 124.929761 241.41375 
L 124.929761 132.57873 
L 113.599577 132.57873 
z
" clip-path="url(#pf6c089df77)" style="fill: #1f77b4"/>
   </g>
   <g id="patch_6">
    <path d="M 136.259945 241.41375 
L 147.590129 241.41375 
L 147.590129 161.259614 
L 136.259945 161.259614 
z
" clip-path="url(#pf6c089df77)" style="fill: #1f77b4"/>
   </g>
   <g id="patch_7">
    <path d="M 158.920312 241.41375 
L 170.250496 241.41375 
L 170.250496 168.905897 
L 158.920312 168.905897 
z
" clip-path="url(#pf6c089df77)" style="fill: #1f77b4"/>
   </g>
   <g id="patch_8">
    <path d="M 181.58068 241.41375 
L 192.910864 241.41375 
L 192.910864 170.165629 
L 181.58068 170.165629 
z
" clip-path="url(#pf6c089df77)" style="fill: #1f77b4"/>
   </g>
   <g id="patch_9">
    <path d="M 204.241048 241.41375 
L 215.571232 241.41375 
L 215.571232 171.806211 
L 204.241048 171.806211 
z
" clip-path="url(#pf6c089df77)" style="fill: #1f77b4"/>
   </g>
   <g id="patch_10">
    <path d="M 226.901415 241.41375 
L 238.231599 241.41375 
L 238.231599 174.149899 
L 226.901415 174.149899 
z
" clip-path="url(#pf6c089df77)" style="fill: #1f77b4"/>
   </g>
   <g id="patch_11">
    <path d="M 249.561783 241.41375 
L 260.891967 241.41375 
L 260.891967 183.026618 
L 249.561783 183.026618 
z
" clip-path="url(#pf6c089df77)" style="fill: #1f77b4"/>
   </g>
   <g id="patch_12">
    <path d="M 272.222151 241.41375 
L 283.552335 241.41375 
L 283.552335 185.721859 
L 272.222151 185.721859 
z
" clip-path="url(#pf6c089df77)" style="fill: #1f77b4"/>
   </g>
   <g id="patch_13">
    <path d="M 294.882518 241.41375 
L 306.212702 241.41375 
L 306.212702 197.996926 
L 294.882518 197.996926 
z
" clip-path="url(#pf6c089df77)" style="fill: #1f77b4"/>
   </g>
   <g id="patch_14">
    <path d="M 317.542886 241.41375 
L 328.87307 241.41375 
L 328.87307 206.141243 
L 317.542886 206.141243 
z
" clip-path="url(#pf6c089df77)" style="fill: #1f77b4"/>
   </g>
   <g id="patch_15">
    <path d="M 340.203254 241.41375 
L 351.533437 241.41375 
L 351.533437 215.63318 
L 340.203254 215.63318 
z
" clip-path="url(#pf6c089df77)" style="fill: #1f77b4"/>
   </g>
   <g id="patch_16">
    <path d="M 362.863621 241.41375 
L 374.193805 241.41375 
L 374.193805 226.53133 
L 362.863621 226.53133 
z
" clip-path="url(#pf6c089df77)" style="fill: #1f77b4"/>
   </g>
   <g id="patch_17">
    <path d="M 385.523989 241.41375 
L 396.854173 241.41375 
L 396.854173 230.925745 
L 385.523989 230.925745 
z
" clip-path="url(#pf6c089df77)" style="fill: #1f77b4"/>
   </g>
   <g id="patch_18">
    <path d="M 408.184357 241.41375 
L 419.51454 241.41375 
L 419.51454 231.687444 
L 408.184357 231.687444 
z
" clip-path="url(#pf6c089df77)" style="fill: #1f77b4"/>
   </g>
   <g id="patch_19">
    <path d="M 430.844724 241.41375 
L 442.174908 241.41375 
L 442.174908 238.308363 
L 430.844724 238.308363 
z
" clip-path="url(#pf6c089df77)" style="fill: #1f77b4"/>
   </g>
   <g id="matplotlib.axis_1">
    <g id="xtick_1">
     <g id="line2d_1">
      <defs>
       <path id="md0a464c250" d="M 0 0 
L 0 -3.5 
" style="stroke: #000000; stroke-width: 0.8"/>
      </defs>
      <g>
       <use xlink:href="#md0a464c250" x="73.943934" y="241.41375" style="fill: #ffffff; stroke: #000000; stroke-width: 0.8"/>
      </g>
     </g>
     <g id="text_1">
      <!-- walk -->
      <g transform="translate(77.255184 273.449375) rotate(-90) scale(0.12 -0.12)">
       <defs>
        <path id="DejaVuSerif-77" d="M 3072 3322 
L 3922 728 
L 4672 2988 
L 4191 2988 
L 4191 3322 
L 5394 3322 
L 5394 2988 
L 5025 2988 
L 4038 0 
L 3559 0 
L 2741 2484 
L 1919 0 
L 1459 0 
L 475 2988 
L 103 2988 
L 103 3322 
L 1606 3322 
L 1606 2988 
L 1069 2988 
L 1813 728 
L 2669 3322 
L 3072 3322 
z
" transform="scale(0.015625)"/>
        <path id="DejaVuSerif-61" d="M 2547 1044 
L 2547 1747 
L 1806 1747 
Q 1378 1747 1168 1562 
Q 959 1378 959 997 
Q 959 650 1171 447 
Q 1384 244 1747 244 
Q 2106 244 2326 466 
Q 2547 688 2547 1044 
z
M 3122 2075 
L 3122 331 
L 3634 331 
L 3634 0 
L 2547 0 
L 2547 359 
Q 2356 128 2106 18 
Q 1856 -91 1522 -91 
Q 969 -91 644 203 
Q 319 497 319 997 
Q 319 1513 691 1797 
Q 1063 2081 1741 2081 
L 2547 2081 
L 2547 2309 
Q 2547 2688 2317 2895 
Q 2088 3103 1672 3103 
Q 1328 3103 1125 2947 
Q 922 2791 872 2484 
L 575 2484 
L 575 3156 
Q 875 3284 1158 3348 
Q 1441 3413 1709 3413 
Q 2400 3413 2761 3070 
Q 3122 2728 3122 2075 
z
" transform="scale(0.015625)"/>
        <path id="DejaVuSerif-6c" d="M 1313 331 
L 1856 331 
L 1856 0 
L 184 0 
L 184 331 
L 738 331 
L 738 4531 
L 184 4531 
L 184 4863 
L 1313 4863 
L 1313 331 
z
" transform="scale(0.015625)"/>
        <path id="DejaVuSerif-6b" d="M 1831 0 
L 219 0 
L 219 331 
L 738 331 
L 738 4531 
L 184 4531 
L 184 4863 
L 1313 4863 
L 1313 1697 
L 2713 2988 
L 2234 2988 
L 2234 3322 
L 3738 3322 
L 3738 2988 
L 3169 2988 
L 2181 2075 
L 3444 331 
L 3922 331 
L 3922 0 
L 2284 0 
L 2284 331 
L 2759 331 
L 1766 1697 
L 1313 1275 
L 1313 331 
L 1831 331 
L 1831 0 
z
" transform="scale(0.015625)"/>
       </defs>
       <use xlink:href="#DejaVuSerif-77"/>
       <use xlink:href="#DejaVuSerif-61" x="85.595703"/>
       <use xlink:href="#DejaVuSerif-6c" x="145.214844"/>
       <use xlink:href="#DejaVuSerif-6b" x="177.197266"/>
      </g>
     </g>
    </g>
    <g id="xtick_2">
     <g id="line2d_2">
      <g>
       <use xlink:href="#md0a464c250" x="96.604301" y="241.41375" style="fill: #ffffff; stroke: #000000; stroke-width: 0.8"/>
      </g>
     </g>
     <g id="text_2">
      <!-- dance-long -->
      <g transform="translate(99.830239 311.830625) rotate(-90) scale(0.12 -0.12)">
       <defs>
        <path id="DejaVuSerif-64" d="M 3359 331 
L 3909 331 
L 3909 0 
L 2784 0 
L 2784 519 
Q 2616 206 2355 57 
Q 2094 -91 1709 -91 
Q 1097 -91 708 395 
Q 319 881 319 1663 
Q 319 2444 706 2928 
Q 1094 3413 1709 3413 
Q 2094 3413 2355 3264 
Q 2616 3116 2784 2803 
L 2784 4531 
L 2241 4531 
L 2241 4863 
L 3359 4863 
L 3359 331 
z
M 2784 1497 
L 2784 1825 
Q 2784 2422 2554 2737 
Q 2325 3053 1888 3053 
Q 1444 3053 1217 2703 
Q 991 2353 991 1663 
Q 991 975 1217 622 
Q 1444 269 1888 269 
Q 2325 269 2554 583 
Q 2784 897 2784 1497 
z
" transform="scale(0.015625)"/>
        <path id="DejaVuSerif-6e" d="M 263 0 
L 263 331 
L 781 331 
L 781 2988 
L 231 2988 
L 231 3322 
L 1356 3322 
L 1356 2731 
Q 1516 3069 1770 3241 
Q 2025 3413 2363 3413 
Q 2913 3413 3172 3097 
Q 3431 2781 3431 2113 
L 3431 331 
L 3944 331 
L 3944 0 
L 2356 0 
L 2356 331 
L 2853 331 
L 2853 1931 
Q 2853 2541 2703 2767 
Q 2553 2994 2175 2994 
Q 1775 2994 1565 2701 
Q 1356 2409 1356 1850 
L 1356 331 
L 1856 331 
L 1856 0 
L 263 0 
z
" transform="scale(0.015625)"/>
        <path id="DejaVuSerif-63" d="M 3291 997 
Q 3169 466 2822 187 
Q 2475 -91 1925 -91 
Q 1200 -91 759 389 
Q 319 869 319 1663 
Q 319 2459 759 2936 
Q 1200 3413 1925 3413 
Q 2241 3413 2553 3339 
Q 2866 3266 3181 3116 
L 3181 2266 
L 2847 2266 
Q 2781 2703 2561 2903 
Q 2341 3103 1931 3103 
Q 1466 3103 1228 2742 
Q 991 2381 991 1663 
Q 991 944 1227 581 
Q 1463 219 1931 219 
Q 2303 219 2525 412 
Q 2747 606 2828 997 
L 3291 997 
z
" transform="scale(0.015625)"/>
        <path id="DejaVuSerif-65" d="M 3469 1600 
L 991 1600 
L 991 1575 
Q 991 903 1244 561 
Q 1497 219 1991 219 
Q 2369 219 2611 417 
Q 2853 616 2950 1006 
L 3413 1006 
Q 3275 459 2904 184 
Q 2534 -91 1931 -91 
Q 1203 -91 761 389 
Q 319 869 319 1663 
Q 319 2450 753 2931 
Q 1188 3413 1894 3413 
Q 2647 3413 3050 2948 
Q 3453 2484 3469 1600 
z
M 2791 1931 
Q 2772 2513 2545 2808 
Q 2319 3103 1894 3103 
Q 1497 3103 1269 2806 
Q 1041 2509 991 1931 
L 2791 1931 
z
" transform="scale(0.015625)"/>
        <path id="DejaVuSerif-2d" d="M 281 1959 
L 1881 1959 
L 1881 1472 
L 281 1472 
L 281 1959 
z
" transform="scale(0.015625)"/>
        <path id="DejaVuSerif-6f" d="M 1925 219 
Q 2388 219 2623 584 
Q 2859 950 2859 1663 
Q 2859 2375 2623 2739 
Q 2388 3103 1925 3103 
Q 1463 3103 1227 2739 
Q 991 2375 991 1663 
Q 991 950 1228 584 
Q 1466 219 1925 219 
z
M 1925 -91 
Q 1200 -91 759 389 
Q 319 869 319 1663 
Q 319 2456 758 2934 
Q 1197 3413 1925 3413 
Q 2653 3413 3092 2934 
Q 3531 2456 3531 1663 
Q 3531 869 3092 389 
Q 2653 -91 1925 -91 
z
" transform="scale(0.015625)"/>
        <path id="DejaVuSerif-67" d="M 3359 2988 
L 3359 72 
Q 3359 -644 2965 -1033 
Q 2572 -1422 1844 -1422 
Q 1516 -1422 1216 -1362 
Q 916 -1303 641 -1184 
L 641 -488 
L 941 -488 
Q 997 -813 1206 -963 
Q 1416 -1113 1806 -1113 
Q 2313 -1113 2548 -827 
Q 2784 -541 2784 72 
L 2784 519 
Q 2616 206 2355 57 
Q 2094 -91 1709 -91 
Q 1097 -91 708 395 
Q 319 881 319 1663 
Q 319 2444 706 2928 
Q 1094 3413 1709 3413 
Q 2094 3413 2355 3264 
Q 2616 3116 2784 2803 
L 2784 3322 
L 3909 3322 
L 3909 2988 
L 3359 2988 
z
M 2784 1825 
Q 2784 2422 2554 2737 
Q 2325 3053 1888 3053 
Q 1444 3053 1217 2703 
Q 991 2353 991 1663 
Q 991 975 1217 622 
Q 1444 269 1888 269 
Q 2325 269 2554 583 
Q 2784 897 2784 1497 
L 2784 1825 
z
" transform="scale(0.015625)"/>
       </defs>
       <use xlink:href="#DejaVuSerif-64"/>
       <use xlink:href="#DejaVuSerif-61" x="64.013672"/>
       <use xlink:href="#DejaVuSerif-6e" x="123.632812"/>
       <use xlink:href="#DejaVuSerif-63" x="188.037109"/>
       <use xlink:href="#DejaVuSerif-65" x="244.042969"/>
       <use xlink:href="#DejaVuSerif-2d" x="303.222656"/>
       <use xlink:href="#DejaVuSerif-6c" x="337.011719"/>
       <use xlink:href="#DejaVuSerif-6f" x="368.994141"/>
       <use xlink:href="#DejaVuSerif-6e" x="429.199219"/>
       <use xlink:href="#DejaVuSerif-67" x="493.603516"/>
      </g>
     </g>
    </g>
    <g id="xtick_3">
     <g id="line2d_3">
      <g>
       <use xlink:href="#md0a464c250" x="119.264669" y="241.41375" style="fill: #ffffff; stroke: #000000; stroke-width: 0.8"/>
      </g>
     </g>
     <g id="text_3">
      <!-- walk-back -->
      <g transform="translate(122.575919 306.123125) rotate(-90) scale(0.12 -0.12)">
       <defs>
        <path id="DejaVuSerif-62" d="M 738 331 
L 738 4531 
L 184 4531 
L 184 4863 
L 1313 4863 
L 1313 2803 
Q 1481 3116 1742 3264 
Q 2003 3413 2388 3413 
Q 3000 3413 3387 2928 
Q 3775 2444 3775 1663 
Q 3775 881 3387 395 
Q 3000 -91 2388 -91 
Q 2003 -91 1742 57 
Q 1481 206 1313 519 
L 1313 0 
L 184 0 
L 184 331 
L 738 331 
z
M 1313 1497 
Q 1313 897 1542 583 
Q 1772 269 2209 269 
Q 2650 269 2876 622 
Q 3103 975 3103 1663 
Q 3103 2353 2876 2703 
Q 2650 3053 2209 3053 
Q 1772 3053 1542 2737 
Q 1313 2422 1313 1825 
L 1313 1497 
z
" transform="scale(0.015625)"/>
       </defs>
       <use xlink:href="#DejaVuSerif-77"/>
       <use xlink:href="#DejaVuSerif-61" x="85.595703"/>
       <use xlink:href="#DejaVuSerif-6c" x="145.214844"/>
       <use xlink:href="#DejaVuSerif-6b" x="177.197266"/>
       <use xlink:href="#DejaVuSerif-2d" x="236.042969"/>
       <use xlink:href="#DejaVuSerif-62" x="269.832031"/>
       <use xlink:href="#DejaVuSerif-61" x="333.845703"/>
       <use xlink:href="#DejaVuSerif-63" x="393.464844"/>
       <use xlink:href="#DejaVuSerif-6b" x="449.470703"/>
      </g>
     </g>
    </g>
    <g id="xtick_4">
     <g id="line2d_4">
      <g>
       <use xlink:href="#md0a464c250" x="141.925037" y="241.41375" style="fill: #ffffff; stroke: #000000; stroke-width: 0.8"/>
      </g>
     </g>
     <g id="text_4">
      <!-- bye -->
      <g transform="translate(145.150974 266.478125) rotate(-90) scale(0.12 -0.12)">
       <defs>
        <path id="DejaVuSerif-79" d="M 1381 -609 
L 1600 -56 
L 359 2988 
L -19 2988 
L -19 3322 
L 1509 3322 
L 1509 2988 
L 978 2988 
L 1913 703 
L 2847 2988 
L 2350 2988 
L 2350 3322 
L 3597 3322 
L 3597 2988 
L 3225 2988 
L 1703 -750 
Q 1547 -1138 1356 -1280 
Q 1166 -1422 819 -1422 
Q 672 -1422 517 -1397 
Q 363 -1372 206 -1325 
L 206 -691 
L 500 -691 
Q 519 -903 608 -995 
Q 697 -1088 884 -1088 
Q 1056 -1088 1161 -992 
Q 1266 -897 1381 -609 
z
" transform="scale(0.015625)"/>
       </defs>
       <use xlink:href="#DejaVuSerif-62"/>
       <use xlink:href="#DejaVuSerif-79" x="64.013672"/>
       <use xlink:href="#DejaVuSerif-65" x="120.507812"/>
      </g>
     </g>
    </g>
    <g id="xtick_5">
     <g id="line2d_5">
      <g>
       <use xlink:href="#md0a464c250" x="164.585404" y="241.41375" style="fill: #ffffff; stroke: #000000; stroke-width: 0.8"/>
      </g>
     </g>
     <g id="text_5">
      <!-- walk-right -->
      <g transform="translate(167.811342 307.101875) rotate(-90) scale(0.12 -0.12)">
       <defs>
        <path id="DejaVuSerif-72" d="M 3059 3328 
L 3059 2497 
L 2728 2497 
Q 2713 2744 2591 2866 
Q 2469 2988 2234 2988 
Q 1809 2988 1582 2694 
Q 1356 2400 1356 1850 
L 1356 331 
L 2022 331 
L 2022 0 
L 263 0 
L 263 331 
L 781 331 
L 781 2994 
L 231 2994 
L 231 3322 
L 1356 3322 
L 1356 2731 
Q 1525 3078 1790 3245 
Q 2056 3413 2438 3413 
Q 2578 3413 2733 3391 
Q 2888 3369 3059 3328 
z
" transform="scale(0.015625)"/>
        <path id="DejaVuSerif-69" d="M 622 4353 
Q 622 4497 726 4603 
Q 831 4709 978 4709 
Q 1122 4709 1226 4603 
Q 1331 4497 1331 4353 
Q 1331 4206 1228 4103 
Q 1125 4000 978 4000 
Q 831 4000 726 4103 
Q 622 4206 622 4353 
z
M 1356 331 
L 1900 331 
L 1900 0 
L 231 0 
L 231 331 
L 781 331 
L 781 2988 
L 231 2988 
L 231 3322 
L 1356 3322 
L 1356 331 
z
" transform="scale(0.015625)"/>
        <path id="DejaVuSerif-68" d="M 263 0 
L 263 331 
L 781 331 
L 781 4531 
L 231 4531 
L 231 4863 
L 1356 4863 
L 1356 2731 
Q 1516 3069 1770 3241 
Q 2025 3413 2363 3413 
Q 2913 3413 3172 3097 
Q 3431 2781 3431 2113 
L 3431 331 
L 3944 331 
L 3944 0 
L 2356 0 
L 2356 331 
L 2853 331 
L 2853 1931 
Q 2853 2541 2704 2764 
Q 2556 2988 2175 2988 
Q 1775 2988 1565 2697 
Q 1356 2406 1356 1850 
L 1356 331 
L 1856 331 
L 1856 0 
L 263 0 
z
" transform="scale(0.015625)"/>
        <path id="DejaVuSerif-74" d="M 691 2988 
L 184 2988 
L 184 3322 
L 691 3322 
L 691 4353 
L 1269 4353 
L 1269 3322 
L 2350 3322 
L 2350 2988 
L 1269 2988 
L 1269 878 
Q 1269 456 1350 337 
Q 1431 219 1650 219 
Q 1875 219 1978 351 
Q 2081 484 2088 781 
L 2522 781 
Q 2497 328 2275 118 
Q 2053 -91 1600 -91 
Q 1103 -91 897 129 
Q 691 350 691 878 
L 691 2988 
z
" transform="scale(0.015625)"/>
       </defs>
       <use xlink:href="#DejaVuSerif-77"/>
       <use xlink:href="#DejaVuSerif-61" x="85.595703"/>
       <use xlink:href="#DejaVuSerif-6c" x="145.214844"/>
       <use xlink:href="#DejaVuSerif-6b" x="177.197266"/>
       <use xlink:href="#DejaVuSerif-2d" x="236.042969"/>
       <use xlink:href="#DejaVuSerif-72" x="269.832031"/>
       <use xlink:href="#DejaVuSerif-69" x="317.634766"/>
       <use xlink:href="#DejaVuSerif-67" x="349.617188"/>
       <use xlink:href="#DejaVuSerif-68" x="413.630859"/>
       <use xlink:href="#DejaVuSerif-74" x="478.035156"/>
      </g>
     </g>
    </g>
    <g id="xtick_6">
     <g id="line2d_6">
      <g>
       <use xlink:href="#md0a464c250" x="187.245772" y="241.41375" style="fill: #ffffff; stroke: #000000; stroke-width: 0.8"/>
      </g>
     </g>
     <g id="text_6">
      <!-- walk-left -->
      <g transform="translate(190.557022 297.5) rotate(-90) scale(0.12 -0.12)">
       <defs>
        <path id="DejaVuSerif-66" d="M 2753 4078 
L 2450 4078 
Q 2447 4313 2317 4434 
Q 2188 4556 1941 4556 
Q 1619 4556 1487 4379 
Q 1356 4203 1356 3750 
L 1356 3322 
L 2284 3322 
L 2284 2988 
L 1356 2988 
L 1356 331 
L 2094 331 
L 2094 0 
L 231 0 
L 231 331 
L 781 331 
L 781 2988 
L 231 2988 
L 231 3322 
L 781 3322 
L 781 3738 
Q 781 4294 1070 4578 
Q 1359 4863 1919 4863 
Q 2128 4863 2337 4825 
Q 2547 4788 2753 4709 
L 2753 4078 
z
" transform="scale(0.015625)"/>
       </defs>
       <use xlink:href="#DejaVuSerif-77"/>
       <use xlink:href="#DejaVuSerif-61" x="85.595703"/>
       <use xlink:href="#DejaVuSerif-6c" x="145.214844"/>
       <use xlink:href="#DejaVuSerif-6b" x="177.197266"/>
       <use xlink:href="#DejaVuSerif-2d" x="236.042969"/>
       <use xlink:href="#DejaVuSerif-6c" x="269.832031"/>
       <use xlink:href="#DejaVuSerif-65" x="301.814453"/>
       <use xlink:href="#DejaVuSerif-66" x="360.994141"/>
       <use xlink:href="#DejaVuSerif-74" x="398.005859"/>
      </g>
     </g>
    </g>
    <g id="xtick_7">
     <g id="line2d_7">
      <g>
       <use xlink:href="#md0a464c250" x="209.90614" y="241.41375" style="fill: #ffffff; stroke: #000000; stroke-width: 0.8"/>
      </g>
     </g>
     <g id="text_7">
      <!-- byebye -->
      <g transform="translate(213.132077 288.0425) rotate(-90) scale(0.12 -0.12)">
       <use xlink:href="#DejaVuSerif-62"/>
       <use xlink:href="#DejaVuSerif-79" x="64.013672"/>
       <use xlink:href="#DejaVuSerif-65" x="120.507812"/>
       <use xlink:href="#DejaVuSerif-62" x="179.6875"/>
       <use xlink:href="#DejaVuSerif-79" x="243.701172"/>
       <use xlink:href="#DejaVuSerif-65" x="300.195312"/>
      </g>
     </g>
    </g>
    <g id="xtick_8">
     <g id="line2d_8">
      <g>
       <use xlink:href="#md0a464c250" x="232.566507" y="241.41375" style="fill: #ffffff; stroke: #000000; stroke-width: 0.8"/>
      </g>
     </g>
     <g id="text_8">
      <!-- guide -->
      <g transform="translate(235.792445 278.946875) rotate(-90) scale(0.12 -0.12)">
       <defs>
        <path id="DejaVuSerif-75" d="M 2266 3322 
L 3341 3322 
L 3341 331 
L 3884 331 
L 3884 0 
L 2766 0 
L 2766 588 
Q 2606 256 2353 82 
Q 2100 -91 1766 -91 
Q 1213 -91 952 223 
Q 691 538 691 1209 
L 691 2988 
L 172 2988 
L 172 3322 
L 1269 3322 
L 1269 1388 
Q 1269 781 1417 556 
Q 1566 331 1947 331 
Q 2347 331 2556 625 
Q 2766 919 2766 1478 
L 2766 2988 
L 2266 2988 
L 2266 3322 
z
" transform="scale(0.015625)"/>
       </defs>
       <use xlink:href="#DejaVuSerif-67"/>
       <use xlink:href="#DejaVuSerif-75" x="64.013672"/>
       <use xlink:href="#DejaVuSerif-69" x="128.417969"/>
       <use xlink:href="#DejaVuSerif-64" x="160.400391"/>
       <use xlink:href="#DejaVuSerif-65" x="224.414062"/>
      </g>
     </g>
    </g>
    <g id="xtick_9">
     <g id="line2d_9">
      <g>
       <use xlink:href="#md0a464c250" x="255.226875" y="241.41375" style="fill: #ffffff; stroke: #000000; stroke-width: 0.8"/>
      </g>
     </g>
     <g id="text_9">
      <!-- bow -->
      <g transform="translate(258.538125 270.09125) rotate(-90) scale(0.12 -0.12)">
       <use xlink:href="#DejaVuSerif-62"/>
       <use xlink:href="#DejaVuSerif-6f" x="64.013672"/>
       <use xlink:href="#DejaVuSerif-77" x="124.21875"/>
      </g>
     </g>
    </g>
    <g id="xtick_10">
     <g id="line2d_10">
      <g>
       <use xlink:href="#md0a464c250" x="277.887243" y="241.41375" style="fill: #ffffff; stroke: #000000; stroke-width: 0.8"/>
      </g>
     </g>
     <g id="text_10">
      <!-- dance-short -->
      <g transform="translate(281.198493 317.02625) rotate(-90) scale(0.12 -0.12)">
       <defs>
        <path id="DejaVuSerif-73" d="M 359 184 
L 359 959 
L 691 959 
Q 703 588 923 403 
Q 1144 219 1575 219 
Q 1963 219 2166 364 
Q 2369 509 2369 788 
Q 2369 1006 2220 1140 
Q 2072 1275 1594 1428 
L 1178 1569 
Q 750 1706 558 1912 
Q 366 2119 366 2438 
Q 366 2894 700 3153 
Q 1034 3413 1625 3413 
Q 1888 3413 2178 3344 
Q 2469 3275 2778 3144 
L 2778 2419 
L 2447 2419 
Q 2434 2741 2221 2922 
Q 2009 3103 1644 3103 
Q 1281 3103 1095 2975 
Q 909 2847 909 2591 
Q 909 2381 1050 2254 
Q 1191 2128 1613 1997 
L 2069 1856 
Q 2541 1709 2748 1489 
Q 2956 1269 2956 922 
Q 2956 450 2595 179 
Q 2234 -91 1600 -91 
Q 1278 -91 972 -22 
Q 666 47 359 184 
z
" transform="scale(0.015625)"/>
       </defs>
       <use xlink:href="#DejaVuSerif-64"/>
       <use xlink:href="#DejaVuSerif-61" x="64.013672"/>
       <use xlink:href="#DejaVuSerif-6e" x="123.632812"/>
       <use xlink:href="#DejaVuSerif-63" x="188.037109"/>
       <use xlink:href="#DejaVuSerif-65" x="244.042969"/>
       <use xlink:href="#DejaVuSerif-2d" x="303.222656"/>
       <use xlink:href="#DejaVuSerif-73" x="337.011719"/>
       <use xlink:href="#DejaVuSerif-68" x="388.330078"/>
       <use xlink:href="#DejaVuSerif-6f" x="452.734375"/>
       <use xlink:href="#DejaVuSerif-72" x="512.939453"/>
       <use xlink:href="#DejaVuSerif-74" x="560.742188"/>
      </g>
     </g>
    </g>
    <g id="xtick_11">
     <g id="line2d_11">
      <g>
       <use xlink:href="#md0a464c250" x="300.54761" y="241.41375" style="fill: #ffffff; stroke: #000000; stroke-width: 0.8"/>
      </g>
     </g>
     <g id="text_11">
      <!-- run -->
      <g transform="translate(303.85886 266.106875) rotate(-90) scale(0.12 -0.12)">
       <use xlink:href="#DejaVuSerif-72"/>
       <use xlink:href="#DejaVuSerif-75" x="47.802734"/>
       <use xlink:href="#DejaVuSerif-6e" x="112.207031"/>
      </g>
     </g>
    </g>
    <g id="xtick_12">
     <g id="line2d_12">
      <g>
       <use xlink:href="#md0a464c250" x="323.207978" y="241.41375" style="fill: #ffffff; stroke: #000000; stroke-width: 0.8"/>
      </g>
     </g>
     <g id="text_12">
      <!-- dash -->
      <g transform="translate(326.519228 273.636875) rotate(-90) scale(0.12 -0.12)">
       <use xlink:href="#DejaVuSerif-64"/>
       <use xlink:href="#DejaVuSerif-61" x="64.013672"/>
       <use xlink:href="#DejaVuSerif-73" x="123.632812"/>
       <use xlink:href="#DejaVuSerif-68" x="174.951172"/>
      </g>
     </g>
    </g>
    <g id="xtick_13">
     <g id="line2d_13">
      <g>
       <use xlink:href="#md0a464c250" x="345.868346" y="241.41375" style="fill: #ffffff; stroke: #000000; stroke-width: 0.8"/>
      </g>
     </g>
     <g id="text_13">
      <!-- slash -->
      <g transform="translate(349.179596 275.950625) rotate(-90) scale(0.12 -0.12)">
       <use xlink:href="#DejaVuSerif-73"/>
       <use xlink:href="#DejaVuSerif-6c" x="51.318359"/>
       <use xlink:href="#DejaVuSerif-61" x="83.300781"/>
       <use xlink:href="#DejaVuSerif-73" x="142.919922"/>
       <use xlink:href="#DejaVuSerif-68" x="194.238281"/>
      </g>
     </g>
    </g>
    <g id="xtick_14">
     <g id="line2d_14">
      <g>
       <use xlink:href="#md0a464c250" x="368.528713" y="241.41375" style="fill: #ffffff; stroke: #000000; stroke-width: 0.8"/>
      </g>
     </g>
     <g id="text_14">
      <!-- punch -->
      <g transform="translate(371.839963 282.501875) rotate(-90) scale(0.12 -0.12)">
       <defs>
        <path id="DejaVuSerif-70" d="M 1313 1825 
L 1313 1497 
Q 1313 897 1542 583 
Q 1772 269 2209 269 
Q 2650 269 2876 622 
Q 3103 975 3103 1663 
Q 3103 2353 2876 2703 
Q 2650 3053 2209 3053 
Q 1772 3053 1542 2737 
Q 1313 2422 1313 1825 
z
M 738 2988 
L 184 2988 
L 184 3322 
L 1313 3322 
L 1313 2803 
Q 1481 3116 1742 3264 
Q 2003 3413 2388 3413 
Q 3000 3413 3387 2928 
Q 3775 2444 3775 1663 
Q 3775 881 3387 395 
Q 3000 -91 2388 -91 
Q 2003 -91 1742 57 
Q 1481 206 1313 519 
L 1313 -997 
L 1856 -997 
L 1856 -1331 
L 184 -1331 
L 184 -997 
L 738 -997 
L 738 2988 
z
" transform="scale(0.015625)"/>
       </defs>
       <use xlink:href="#DejaVuSerif-70"/>
       <use xlink:href="#DejaVuSerif-75" x="64.013672"/>
       <use xlink:href="#DejaVuSerif-6e" x="128.417969"/>
       <use xlink:href="#DejaVuSerif-63" x="192.822266"/>
       <use xlink:href="#DejaVuSerif-68" x="248.828125"/>
      </g>
     </g>
    </g>
    <g id="xtick_15">
     <g id="line2d_15">
      <g>
       <use xlink:href="#md0a464c250" x="391.189081" y="241.41375" style="fill: #ffffff; stroke: #000000; stroke-width: 0.8"/>
      </g>
     </g>
     <g id="text_15">
      <!-- kick -->
      <g transform="translate(394.500331 270.014375) rotate(-90) scale(0.12 -0.12)">
       <use xlink:href="#DejaVuSerif-6b"/>
       <use xlink:href="#DejaVuSerif-69" x="60.595703"/>
       <use xlink:href="#DejaVuSerif-63" x="92.578125"/>
       <use xlink:href="#DejaVuSerif-6b" x="148.583984"/>
      </g>
     </g>
    </g>
    <g id="xtick_16">
     <g id="line2d_16">
      <g>
       <use xlink:href="#md0a464c250" x="413.849449" y="241.41375" style="fill: #ffffff; stroke: #000000; stroke-width: 0.8"/>
      </g>
     </g>
     <g id="text_16">
      <!-- call -->
      <g transform="translate(417.160699 266.465) rotate(-90) scale(0.12 -0.12)">
       <use xlink:href="#DejaVuSerif-63"/>
       <use xlink:href="#DejaVuSerif-61" x="56.005859"/>
       <use xlink:href="#DejaVuSerif-6c" x="115.625"/>
       <use xlink:href="#DejaVuSerif-6c" x="147.607422"/>
      </g>
     </g>
    </g>
    <g id="xtick_17">
     <g id="line2d_17">
      <g>
       <use xlink:href="#md0a464c250" x="436.509816" y="241.41375" style="fill: #ffffff; stroke: #000000; stroke-width: 0.8"/>
      </g>
     </g>
     <g id="text_17">
      <!-- respond -->
      <g transform="translate(439.821066 294.22625) rotate(-90) scale(0.12 -0.12)">
       <use xlink:href="#DejaVuSerif-72"/>
       <use xlink:href="#DejaVuSerif-65" x="47.802734"/>
       <use xlink:href="#DejaVuSerif-73" x="106.982422"/>
       <use xlink:href="#DejaVuSerif-70" x="158.300781"/>
       <use xlink:href="#DejaVuSerif-6f" x="222.314453"/>
       <use xlink:href="#DejaVuSerif-6e" x="282.519531"/>
       <use xlink:href="#DejaVuSerif-64" x="346.923828"/>
      </g>
     </g>
    </g>
    <g id="text_18">
     <!-- action -->
     <g transform="translate(236.4825 330.144375) scale(0.12 -0.12)">
      <use xlink:href="#DejaVuSerif-61"/>
      <use xlink:href="#DejaVuSerif-63" x="59.619141"/>
      <use xlink:href="#DejaVuSerif-74" x="115.625"/>
      <use xlink:href="#DejaVuSerif-69" x="155.810547"/>
      <use xlink:href="#DejaVuSerif-6f" x="187.792969"/>
      <use xlink:href="#DejaVuSerif-6e" x="247.998047"/>
     </g>
    </g>
   </g>
   <g id="matplotlib.axis_2">
    <g id="ytick_1">
     <g id="line2d_18">
      <defs>
       <path id="m2281d6e880" d="M 0 0 
L 3.5 0 
" style="stroke: #000000; stroke-width: 0.8"/>
      </defs>
      <g>
       <use xlink:href="#m2281d6e880" x="62.61375" y="241.41375" style="fill: #ffffff; stroke: #000000; stroke-width: 0.8"/>
      </g>
     </g>
     <g id="text_19">
      <!-- 0 -->
      <g transform="translate(51.47875 245.972812) scale(0.12 -0.12)">
       <defs>
        <path id="DejaVuSerif-30" d="M 2034 219 
Q 2513 219 2750 744 
Q 2988 1269 2988 2328 
Q 2988 3391 2750 3916 
Q 2513 4441 2034 4441 
Q 1556 4441 1318 3916 
Q 1081 3391 1081 2328 
Q 1081 1269 1318 744 
Q 1556 219 2034 219 
z
M 2034 -91 
Q 1275 -91 848 546 
Q 422 1184 422 2328 
Q 422 3475 848 4112 
Q 1275 4750 2034 4750 
Q 2797 4750 3222 4112 
Q 3647 3475 3647 2328 
Q 3647 1184 3222 546 
Q 2797 -91 2034 -91 
z
" transform="scale(0.015625)"/>
       </defs>
       <use xlink:href="#DejaVuSerif-30"/>
      </g>
     </g>
    </g>
    <g id="ytick_2">
     <g id="line2d_19">
      <g>
       <use xlink:href="#m2281d6e880" x="62.61375" y="212.117648" style="fill: #ffffff; stroke: #000000; stroke-width: 0.8"/>
      </g>
     </g>
     <g id="text_20">
      <!-- 1000 -->
      <g transform="translate(28.57375 216.67671) scale(0.12 -0.12)">
       <defs>
        <path id="DejaVuSerif-31" d="M 909 0 
L 909 331 
L 1722 331 
L 1722 4213 
L 781 3603 
L 781 4013 
L 1919 4750 
L 2350 4750 
L 2350 331 
L 3163 331 
L 3163 0 
L 909 0 
z
" transform="scale(0.015625)"/>
       </defs>
       <use xlink:href="#DejaVuSerif-31"/>
       <use xlink:href="#DejaVuSerif-30" x="63.623047"/>
       <use xlink:href="#DejaVuSerif-30" x="127.246094"/>
       <use xlink:href="#DejaVuSerif-30" x="190.869141"/>
      </g>
     </g>
    </g>
    <g id="ytick_3">
     <g id="line2d_20">
      <g>
       <use xlink:href="#m2281d6e880" x="62.61375" y="182.821545" style="fill: #ffffff; stroke: #000000; stroke-width: 0.8"/>
      </g>
     </g>
     <g id="text_21">
      <!-- 2000 -->
      <g transform="translate(28.57375 187.380608) scale(0.12 -0.12)">
       <defs>
        <path id="DejaVuSerif-32" d="M 819 3553 
L 469 3553 
L 469 4384 
Q 803 4563 1142 4656 
Q 1481 4750 1806 4750 
Q 2534 4750 2956 4397 
Q 3378 4044 3378 3438 
Q 3378 2753 2422 1800 
Q 2347 1728 2309 1691 
L 1131 513 
L 3078 513 
L 3078 1088 
L 3444 1088 
L 3444 0 
L 434 0 
L 434 341 
L 1850 1753 
Q 2319 2222 2519 2614 
Q 2719 3006 2719 3438 
Q 2719 3909 2473 4175 
Q 2228 4441 1797 4441 
Q 1350 4441 1106 4219 
Q 863 3997 819 3553 
z
" transform="scale(0.015625)"/>
       </defs>
       <use xlink:href="#DejaVuSerif-32"/>
       <use xlink:href="#DejaVuSerif-30" x="63.623047"/>
       <use xlink:href="#DejaVuSerif-30" x="127.246094"/>
       <use xlink:href="#DejaVuSerif-30" x="190.869141"/>
      </g>
     </g>
    </g>
    <g id="ytick_4">
     <g id="line2d_21">
      <g>
       <use xlink:href="#m2281d6e880" x="62.61375" y="153.525443" style="fill: #ffffff; stroke: #000000; stroke-width: 0.8"/>
      </g>
     </g>
     <g id="text_22">
      <!-- 3000 -->
      <g transform="translate(28.57375 158.084505) scale(0.12 -0.12)">
       <defs>
        <path id="DejaVuSerif-33" d="M 622 4469 
Q 988 4606 1323 4678 
Q 1659 4750 1953 4750 
Q 2638 4750 3022 4454 
Q 3406 4159 3406 3634 
Q 3406 3213 3140 2930 
Q 2875 2647 2388 2547 
Q 2963 2466 3280 2130 
Q 3597 1794 3597 1259 
Q 3597 606 3158 257 
Q 2719 -91 1894 -91 
Q 1528 -91 1179 -12 
Q 831 66 488 225 
L 488 1131 
L 838 1131 
Q 869 681 1141 450 
Q 1413 219 1906 219 
Q 2384 219 2661 495 
Q 2938 772 2938 1253 
Q 2938 1803 2653 2086 
Q 2369 2369 1819 2369 
L 1522 2369 
L 1522 2688 
L 1678 2688 
Q 2225 2688 2498 2914 
Q 2772 3141 2772 3597 
Q 2772 4006 2547 4223 
Q 2322 4441 1900 4441 
Q 1478 4441 1245 4241 
Q 1013 4041 972 3647 
L 622 3647 
L 622 4469 
z
" transform="scale(0.015625)"/>
       </defs>
       <use xlink:href="#DejaVuSerif-33"/>
       <use xlink:href="#DejaVuSerif-30" x="63.623047"/>
       <use xlink:href="#DejaVuSerif-30" x="127.246094"/>
       <use xlink:href="#DejaVuSerif-30" x="190.869141"/>
      </g>
     </g>
    </g>
    <g id="ytick_5">
     <g id="line2d_22">
      <g>
       <use xlink:href="#m2281d6e880" x="62.61375" y="124.22934" style="fill: #ffffff; stroke: #000000; stroke-width: 0.8"/>
      </g>
     </g>
     <g id="text_23">
      <!-- 4000 -->
      <g transform="translate(28.57375 128.788403) scale(0.12 -0.12)">
       <defs>
        <path id="DejaVuSerif-34" d="M 2234 1581 
L 2234 4063 
L 641 1581 
L 2234 1581 
z
M 3609 0 
L 1484 0 
L 1484 331 
L 2234 331 
L 2234 1247 
L 197 1247 
L 197 1588 
L 2241 4750 
L 2859 4750 
L 2859 1581 
L 3750 1581 
L 3750 1247 
L 2859 1247 
L 2859 331 
L 3609 331 
L 3609 0 
z
" transform="scale(0.015625)"/>
       </defs>
       <use xlink:href="#DejaVuSerif-34"/>
       <use xlink:href="#DejaVuSerif-30" x="63.623047"/>
       <use xlink:href="#DejaVuSerif-30" x="127.246094"/>
       <use xlink:href="#DejaVuSerif-30" x="190.869141"/>
      </g>
     </g>
    </g>
    <g id="ytick_6">
     <g id="line2d_23">
      <g>
       <use xlink:href="#m2281d6e880" x="62.61375" y="94.933238" style="fill: #ffffff; stroke: #000000; stroke-width: 0.8"/>
      </g>
     </g>
     <g id="text_24">
      <!-- 5000 -->
      <g transform="translate(28.57375 99.492301) scale(0.12 -0.12)">
       <defs>
        <path id="DejaVuSerif-35" d="M 3219 4666 
L 3219 4153 
L 1081 4153 
L 1081 2816 
Q 1244 2928 1461 2984 
Q 1678 3041 1947 3041 
Q 2703 3041 3140 2622 
Q 3578 2203 3578 1478 
Q 3578 738 3136 323 
Q 2694 -91 1894 -91 
Q 1572 -91 1234 -12 
Q 897 66 544 225 
L 544 1131 
L 897 1131 
Q 925 688 1179 453 
Q 1434 219 1894 219 
Q 2388 219 2653 544 
Q 2919 869 2919 1478 
Q 2919 2084 2655 2407 
Q 2391 2731 1894 2731 
Q 1613 2731 1398 2631 
Q 1184 2531 1019 2322 
L 750 2322 
L 750 4666 
L 3219 4666 
z
" transform="scale(0.015625)"/>
       </defs>
       <use xlink:href="#DejaVuSerif-35"/>
       <use xlink:href="#DejaVuSerif-30" x="63.623047"/>
       <use xlink:href="#DejaVuSerif-30" x="127.246094"/>
       <use xlink:href="#DejaVuSerif-30" x="190.869141"/>
      </g>
     </g>
    </g>
    <g id="ytick_7">
     <g id="line2d_24">
      <g>
       <use xlink:href="#m2281d6e880" x="62.61375" y="65.637136" style="fill: #ffffff; stroke: #000000; stroke-width: 0.8"/>
      </g>
     </g>
     <g id="text_25">
      <!-- 6000 -->
      <g transform="translate(28.57375 70.196198) scale(0.12 -0.12)">
       <defs>
        <path id="DejaVuSerif-36" d="M 2094 219 
Q 2534 219 2771 542 
Q 3009 866 3009 1472 
Q 3009 2078 2771 2401 
Q 2534 2725 2094 2725 
Q 1647 2725 1412 2412 
Q 1178 2100 1178 1509 
Q 1178 888 1415 553 
Q 1653 219 2094 219 
z
M 1075 2569 
Q 1288 2803 1556 2918 
Q 1825 3034 2163 3034 
Q 2859 3034 3264 2615 
Q 3669 2197 3669 1472 
Q 3669 763 3233 336 
Q 2797 -91 2069 -91 
Q 1278 -91 853 498 
Q 428 1088 428 2181 
Q 428 3406 931 4078 
Q 1434 4750 2350 4750 
Q 2597 4750 2869 4703 
Q 3141 4656 3425 4563 
L 3425 3794 
L 3072 3794 
Q 3034 4109 2831 4275 
Q 2628 4441 2284 4441 
Q 1678 4441 1381 3981 
Q 1084 3522 1075 2569 
z
" transform="scale(0.015625)"/>
       </defs>
       <use xlink:href="#DejaVuSerif-36"/>
       <use xlink:href="#DejaVuSerif-30" x="63.623047"/>
       <use xlink:href="#DejaVuSerif-30" x="127.246094"/>
       <use xlink:href="#DejaVuSerif-30" x="190.869141"/>
      </g>
     </g>
    </g>
    <g id="ytick_8">
     <g id="line2d_25">
      <g>
       <use xlink:href="#m2281d6e880" x="62.61375" y="36.341033" style="fill: #ffffff; stroke: #000000; stroke-width: 0.8"/>
      </g>
     </g>
     <g id="text_26">
      <!-- 7000 -->
      <g transform="translate(28.57375 40.900096) scale(0.12 -0.12)">
       <defs>
        <path id="DejaVuSerif-37" d="M 3609 4347 
L 1784 0 
L 1319 0 
L 3059 4153 
L 903 4153 
L 903 3578 
L 538 3578 
L 538 4666 
L 3609 4666 
L 3609 4347 
z
" transform="scale(0.015625)"/>
       </defs>
       <use xlink:href="#DejaVuSerif-37"/>
       <use xlink:href="#DejaVuSerif-30" x="63.623047"/>
       <use xlink:href="#DejaVuSerif-30" x="127.246094"/>
       <use xlink:href="#DejaVuSerif-30" x="190.869141"/>
      </g>
     </g>
    </g>
    <g id="text_27">
     <!-- frames -->
     <g transform="translate(22.078125 156.643687) rotate(-90) scale(0.12 -0.12)">
      <defs>
       <path id="DejaVuSerif-6d" d="M 3316 2675 
Q 3481 3041 3739 3227 
Q 3997 3413 4341 3413 
Q 4863 3413 5119 3089 
Q 5375 2766 5375 2113 
L 5375 331 
L 5894 331 
L 5894 0 
L 4300 0 
L 4300 331 
L 4800 331 
L 4800 2047 
Q 4800 2556 4650 2772 
Q 4500 2988 4153 2988 
Q 3769 2988 3567 2697 
Q 3366 2406 3366 1850 
L 3366 331 
L 3866 331 
L 3866 0 
L 2291 0 
L 2291 331 
L 2791 331 
L 2791 2069 
Q 2791 2566 2641 2777 
Q 2491 2988 2144 2988 
Q 1759 2988 1557 2697 
Q 1356 2406 1356 1850 
L 1356 331 
L 1856 331 
L 1856 0 
L 263 0 
L 263 331 
L 781 331 
L 781 2994 
L 231 2994 
L 231 3322 
L 1356 3322 
L 1356 2731 
Q 1516 3063 1762 3238 
Q 2009 3413 2322 3413 
Q 2709 3413 2968 3220 
Q 3228 3028 3316 2675 
z
" transform="scale(0.015625)"/>
      </defs>
      <use xlink:href="#DejaVuSerif-66"/>
      <use xlink:href="#DejaVuSerif-72" x="37.011719"/>
      <use xlink:href="#DejaVuSerif-61" x="84.814453"/>
      <use xlink:href="#DejaVuSerif-6d" x="144.433594"/>
      <use xlink:href="#DejaVuSerif-65" x="239.257812"/>
      <use xlink:href="#DejaVuSerif-73" x="298.4375"/>
     </g>
    </g>
   </g>
   <g id="patch_20">
    <path d="M 62.61375 241.41375 
L 62.61375 29.90175 
" style="fill: none; stroke: #000000; stroke-linejoin: miter; stroke-linecap: square"/>
   </g>
   <g id="patch_21">
    <path d="M 447.84 241.41375 
L 447.84 29.90175 
" style="fill: none; stroke: #000000; stroke-linejoin: miter; stroke-linecap: square"/>
   </g>
   <g id="patch_22">
    <path d="M 62.61375 241.41375 
L 447.84 241.41375 
" style="fill: none; stroke: #000000; stroke-linejoin: miter; stroke-linecap: square"/>
   </g>
   <g id="patch_23">
    <path d="M 62.61375 29.90175 
L 447.84 29.90175 
" style="fill: none; stroke: #000000; stroke-linejoin: miter; stroke-linecap: square"/>
   </g>
   <g id="text_28">
    <!-- action_hist -->
    <g transform="translate(215.6055 23.90175) scale(0.144 -0.144)">
     <defs>
      <path id="DejaVuSerif-5f" d="M 3200 -1259 
L 3200 -1509 
L 0 -1509 
L 0 -1259 
L 3200 -1259 
z
" transform="scale(0.015625)"/>
     </defs>
     <use xlink:href="#DejaVuSerif-61"/>
     <use xlink:href="#DejaVuSerif-63" x="59.619141"/>
     <use xlink:href="#DejaVuSerif-74" x="115.625"/>
     <use xlink:href="#DejaVuSerif-69" x="155.810547"/>
     <use xlink:href="#DejaVuSerif-6f" x="187.792969"/>
     <use xlink:href="#DejaVuSerif-6e" x="247.998047"/>
     <use xlink:href="#DejaVuSerif-5f" x="312.402344"/>
     <use xlink:href="#DejaVuSerif-68" x="362.402344"/>
     <use xlink:href="#DejaVuSerif-69" x="426.806641"/>
     <use xlink:href="#DejaVuSerif-73" x="458.789062"/>
     <use xlink:href="#DejaVuSerif-74" x="510.107422"/>
    </g>
   </g>
  </g>
 </g>
 <defs>
  <clipPath id="pf6c089df77">
   <rect x="62.61375" y="29.90175" width="385.22625" height="211.512"/>
  </clipPath>
 </defs>
</svg>
