<?xml version="1.0" encoding="utf-8" standalone="no"?>
<!DOCTYPE svg PUBLIC "-//W3C//DTD SVG 1.1//EN"
  "http://www.w3.org/Graphics/SVG/1.1/DTD/svg11.dtd">
<svg xmlns:xlink="http://www.w3.org/1999/xlink" width="460.8pt" height="345.6pt" viewBox="0 0 460.8 345.6" xmlns="http://www.w3.org/2000/svg" version="1.1">
 <metadata>
  <rdf:RDF xmlns:dc="http://purl.org/dc/elements/1.1/" xmlns:cc="http://creativecommons.org/ns#" xmlns:rdf="http://www.w3.org/1999/02/22-rdf-syntax-ns#">
   <cc:Work>
    <dc:type rdf:resource="http://purl.org/dc/dcmitype/StillImage"/>
    <dc:date>2023-06-22T21:37:16.930334</dc:date>
    <dc:format>image/svg+xml</dc:format>
    <dc:creator>
     <cc:Agent>
      <dc:title>Matplotlib v3.7.1, https://matplotlib.org/</dc:title>
     </cc:Agent>
    </dc:creator>
   </cc:Work>
  </rdf:RDF>
 </metadata>
 <defs>
  <style type="text/css">*{stroke-linejoin: round; stroke-linecap: butt}</style>
 </defs>
 <g id="figure_1">
  <g id="patch_1">
   <path d="M 0 345.6 
L 460.8 345.6 
L 460.8 0 
L 0 0 
z
" style="fill: #ffffff"/>
  </g>
  <g id="axes_1">
   <g id="patch_2">
    <path d="M 70.24875 232.235625 
L 447.84 232.235625 
L 447.84 29.90175 
L 70.24875 29.90175 
z
" style="fill: #ffffff"/>
   </g>
   <g id="patch_3">
    <path d="M 76.541938 232.235625 
L 89.128313 232.235625 
L 89.128313 39.536696 
L 76.541938 39.536696 
z
" clip-path="url(#pdec570f9ff)" style="fill: #1f77b4"/>
   </g>
   <g id="patch_4">
    <path d="M 101.714687 232.235625 
L 114.301063 232.235625 
L 114.301063 176.240986 
L 101.714687 176.240986 
z
" clip-path="url(#pdec570f9ff)" style="fill: #1f77b4"/>
   </g>
   <g id="patch_5">
    <path d="M 126.887438 232.235625 
L 139.473813 232.235625 
L 139.473813 185.443175 
L 126.887438 185.443175 
z
" clip-path="url(#pdec570f9ff)" style="fill: #1f77b4"/>
   </g>
   <g id="patch_6">
    <path d="M 152.060187 232.235625 
L 164.646562 232.235625 
L 164.646562 185.599476 
L 152.060187 185.599476 
z
" clip-path="url(#pdec570f9ff)" style="fill: #1f77b4"/>
   </g>
   <g id="patch_7">
    <path d="M 177.232937 232.235625 
L 189.819312 232.235625 
L 189.819312 188.451959 
L 177.232937 188.451959 
z
" clip-path="url(#pdec570f9ff)" style="fill: #1f77b4"/>
   </g>
   <g id="patch_8">
    <path d="M 202.405687 232.235625 
L 214.992063 232.235625 
L 214.992063 194.176463 
L 202.405687 194.176463 
z
" clip-path="url(#pdec570f9ff)" style="fill: #1f77b4"/>
   </g>
   <g id="patch_9">
    <path d="M 227.578437 232.235625 
L 240.164812 232.235625 
L 240.164812 195.71993 
L 227.578437 195.71993 
z
" clip-path="url(#pdec570f9ff)" style="fill: #1f77b4"/>
   </g>
   <g id="patch_10">
    <path d="M 252.751187 232.235625 
L 265.337562 232.235625 
L 265.337562 196.931259 
L 252.751187 196.931259 
z
" clip-path="url(#pdec570f9ff)" style="fill: #1f77b4"/>
   </g>
   <g id="patch_11">
    <path d="M 277.923937 232.235625 
L 290.510312 232.235625 
L 290.510312 197.204785 
L 277.923937 197.204785 
z
" clip-path="url(#pdec570f9ff)" style="fill: #1f77b4"/>
   </g>
   <g id="patch_12">
    <path d="M 303.096687 232.235625 
L 315.683062 232.235625 
L 315.683062 199.725129 
L 303.096687 199.725129 
z
" clip-path="url(#pdec570f9ff)" style="fill: #1f77b4"/>
   </g>
   <g id="patch_13">
    <path d="M 328.269437 232.235625 
L 340.855812 232.235625 
L 340.855812 200.780158 
L 328.269437 200.780158 
z
" clip-path="url(#pdec570f9ff)" style="fill: #1f77b4"/>
   </g>
   <g id="patch_14">
    <path d="M 353.442187 232.235625 
L 366.028562 232.235625 
L 366.028562 202.59715 
L 353.442187 202.59715 
z
" clip-path="url(#pdec570f9ff)" style="fill: #1f77b4"/>
   </g>
   <g id="patch_15">
    <path d="M 378.614937 232.235625 
L 391.201312 232.235625 
L 391.201312 202.851139 
L 378.614937 202.851139 
z
" clip-path="url(#pdec570f9ff)" style="fill: #1f77b4"/>
   </g>
   <g id="patch_16">
    <path d="M 403.787687 232.235625 
L 416.374062 232.235625 
L 416.374062 202.987902 
L 403.787687 202.987902 
z
" clip-path="url(#pdec570f9ff)" style="fill: #1f77b4"/>
   </g>
   <g id="patch_17">
    <path d="M 428.960437 232.235625 
L 441.546812 232.235625 
L 441.546812 203.710791 
L 428.960437 203.710791 
z
" clip-path="url(#pdec570f9ff)" style="fill: #1f77b4"/>
   </g>
   <g id="matplotlib.axis_1">
    <g id="xtick_1">
     <g id="line2d_1">
      <defs>
       <path id="m7d322e3d2a" d="M 0 0 
L 0 -3.5 
" style="stroke: #000000; stroke-width: 0.8"/>
      </defs>
      <g>
       <use xlink:href="#m7d322e3d2a" x="82.835125" y="232.235625" style="fill: #ffffff; stroke: #000000; stroke-width: 0.8"/>
      </g>
     </g>
     <g id="text_1">
      <!-- normal -->
      <g transform="translate(86.146375 278.796875) rotate(-90) scale(0.12 -0.12)">
       <defs>
        <path id="DejaVuSerif-6e" d="M 263 0 
L 263 331 
L 781 331 
L 781 2988 
L 231 2988 
L 231 3322 
L 1356 3322 
L 1356 2731 
Q 1516 3069 1770 3241 
Q 2025 3413 2363 3413 
Q 2913 3413 3172 3097 
Q 3431 2781 3431 2113 
L 3431 331 
L 3944 331 
L 3944 0 
L 2356 0 
L 2356 331 
L 2853 331 
L 2853 1931 
Q 2853 2541 2703 2767 
Q 2553 2994 2175 2994 
Q 1775 2994 1565 2701 
Q 1356 2409 1356 1850 
L 1356 331 
L 1856 331 
L 1856 0 
L 263 0 
z
" transform="scale(0.015625)"/>
        <path id="DejaVuSerif-6f" d="M 1925 219 
Q 2388 219 2623 584 
Q 2859 950 2859 1663 
Q 2859 2375 2623 2739 
Q 2388 3103 1925 3103 
Q 1463 3103 1227 2739 
Q 991 2375 991 1663 
Q 991 950 1228 584 
Q 1466 219 1925 219 
z
M 1925 -91 
Q 1200 -91 759 389 
Q 319 869 319 1663 
Q 319 2456 758 2934 
Q 1197 3413 1925 3413 
Q 2653 3413 3092 2934 
Q 3531 2456 3531 1663 
Q 3531 869 3092 389 
Q 2653 -91 1925 -91 
z
" transform="scale(0.015625)"/>
        <path id="DejaVuSerif-72" d="M 3059 3328 
L 3059 2497 
L 2728 2497 
Q 2713 2744 2591 2866 
Q 2469 2988 2234 2988 
Q 1809 2988 1582 2694 
Q 1356 2400 1356 1850 
L 1356 331 
L 2022 331 
L 2022 0 
L 263 0 
L 263 331 
L 781 331 
L 781 2994 
L 231 2994 
L 231 3322 
L 1356 3322 
L 1356 2731 
Q 1525 3078 1790 3245 
Q 2056 3413 2438 3413 
Q 2578 3413 2733 3391 
Q 2888 3369 3059 3328 
z
" transform="scale(0.015625)"/>
        <path id="DejaVuSerif-6d" d="M 3316 2675 
Q 3481 3041 3739 3227 
Q 3997 3413 4341 3413 
Q 4863 3413 5119 3089 
Q 5375 2766 5375 2113 
L 5375 331 
L 5894 331 
L 5894 0 
L 4300 0 
L 4300 331 
L 4800 331 
L 4800 2047 
Q 4800 2556 4650 2772 
Q 4500 2988 4153 2988 
Q 3769 2988 3567 2697 
Q 3366 2406 3366 1850 
L 3366 331 
L 3866 331 
L 3866 0 
L 2291 0 
L 2291 331 
L 2791 331 
L 2791 2069 
Q 2791 2566 2641 2777 
Q 2491 2988 2144 2988 
Q 1759 2988 1557 2697 
Q 1356 2406 1356 1850 
L 1356 331 
L 1856 331 
L 1856 0 
L 263 0 
L 263 331 
L 781 331 
L 781 2994 
L 231 2994 
L 231 3322 
L 1356 3322 
L 1356 2731 
Q 1516 3063 1762 3238 
Q 2009 3413 2322 3413 
Q 2709 3413 2968 3220 
Q 3228 3028 3316 2675 
z
" transform="scale(0.015625)"/>
        <path id="DejaVuSerif-61" d="M 2547 1044 
L 2547 1747 
L 1806 1747 
Q 1378 1747 1168 1562 
Q 959 1378 959 997 
Q 959 650 1171 447 
Q 1384 244 1747 244 
Q 2106 244 2326 466 
Q 2547 688 2547 1044 
z
M 3122 2075 
L 3122 331 
L 3634 331 
L 3634 0 
L 2547 0 
L 2547 359 
Q 2356 128 2106 18 
Q 1856 -91 1522 -91 
Q 969 -91 644 203 
Q 319 497 319 997 
Q 319 1513 691 1797 
Q 1063 2081 1741 2081 
L 2547 2081 
L 2547 2309 
Q 2547 2688 2317 2895 
Q 2088 3103 1672 3103 
Q 1328 3103 1125 2947 
Q 922 2791 872 2484 
L 575 2484 
L 575 3156 
Q 875 3284 1158 3348 
Q 1441 3413 1709 3413 
Q 2400 3413 2761 3070 
Q 3122 2728 3122 2075 
z
" transform="scale(0.015625)"/>
        <path id="DejaVuSerif-6c" d="M 1313 331 
L 1856 331 
L 1856 0 
L 184 0 
L 184 331 
L 738 331 
L 738 4531 
L 184 4531 
L 184 4863 
L 1313 4863 
L 1313 331 
z
" transform="scale(0.015625)"/>
       </defs>
       <use xlink:href="#DejaVuSerif-6e"/>
       <use xlink:href="#DejaVuSerif-6f" x="64.404297"/>
       <use xlink:href="#DejaVuSerif-72" x="124.609375"/>
       <use xlink:href="#DejaVuSerif-6d" x="172.412109"/>
       <use xlink:href="#DejaVuSerif-61" x="267.236328"/>
       <use xlink:href="#DejaVuSerif-6c" x="326.855469"/>
      </g>
     </g>
    </g>
    <g id="xtick_2">
     <g id="line2d_2">
      <g>
       <use xlink:href="#m7d322e3d2a" x="108.007875" y="232.235625" style="fill: #ffffff; stroke: #000000; stroke-width: 0.8"/>
      </g>
     </g>
     <g id="text_2">
      <!-- sad -->
      <g transform="translate(111.319125 256.73) rotate(-90) scale(0.12 -0.12)">
       <defs>
        <path id="DejaVuSerif-73" d="M 359 184 
L 359 959 
L 691 959 
Q 703 588 923 403 
Q 1144 219 1575 219 
Q 1963 219 2166 364 
Q 2369 509 2369 788 
Q 2369 1006 2220 1140 
Q 2072 1275 1594 1428 
L 1178 1569 
Q 750 1706 558 1912 
Q 366 2119 366 2438 
Q 366 2894 700 3153 
Q 1034 3413 1625 3413 
Q 1888 3413 2178 3344 
Q 2469 3275 2778 3144 
L 2778 2419 
L 2447 2419 
Q 2434 2741 2221 2922 
Q 2009 3103 1644 3103 
Q 1281 3103 1095 2975 
Q 909 2847 909 2591 
Q 909 2381 1050 2254 
Q 1191 2128 1613 1997 
L 2069 1856 
Q 2541 1709 2748 1489 
Q 2956 1269 2956 922 
Q 2956 450 2595 179 
Q 2234 -91 1600 -91 
Q 1278 -91 972 -22 
Q 666 47 359 184 
z
" transform="scale(0.015625)"/>
        <path id="DejaVuSerif-64" d="M 3359 331 
L 3909 331 
L 3909 0 
L 2784 0 
L 2784 519 
Q 2616 206 2355 57 
Q 2094 -91 1709 -91 
Q 1097 -91 708 395 
Q 319 881 319 1663 
Q 319 2444 706 2928 
Q 1094 3413 1709 3413 
Q 2094 3413 2355 3264 
Q 2616 3116 2784 2803 
L 2784 4531 
L 2241 4531 
L 2241 4863 
L 3359 4863 
L 3359 331 
z
M 2784 1497 
L 2784 1825 
Q 2784 2422 2554 2737 
Q 2325 3053 1888 3053 
Q 1444 3053 1217 2703 
Q 991 2353 991 1663 
Q 991 975 1217 622 
Q 1444 269 1888 269 
Q 2325 269 2554 583 
Q 2784 897 2784 1497 
z
" transform="scale(0.015625)"/>
       </defs>
       <use xlink:href="#DejaVuSerif-73"/>
       <use xlink:href="#DejaVuSerif-61" x="51.318359"/>
       <use xlink:href="#DejaVuSerif-64" x="110.9375"/>
      </g>
     </g>
    </g>
    <g id="xtick_3">
     <g id="line2d_3">
      <g>
       <use xlink:href="#m7d322e3d2a" x="133.180625" y="232.235625" style="fill: #ffffff; stroke: #000000; stroke-width: 0.8"/>
      </g>
     </g>
     <g id="text_3">
      <!-- not-confident -->
      <g transform="translate(136.491875 316.855625) rotate(-90) scale(0.12 -0.12)">
       <defs>
        <path id="DejaVuSerif-74" d="M 691 2988 
L 184 2988 
L 184 3322 
L 691 3322 
L 691 4353 
L 1269 4353 
L 1269 3322 
L 2350 3322 
L 2350 2988 
L 1269 2988 
L 1269 878 
Q 1269 456 1350 337 
Q 1431 219 1650 219 
Q 1875 219 1978 351 
Q 2081 484 2088 781 
L 2522 781 
Q 2497 328 2275 118 
Q 2053 -91 1600 -91 
Q 1103 -91 897 129 
Q 691 350 691 878 
L 691 2988 
z
" transform="scale(0.015625)"/>
        <path id="DejaVuSerif-2d" d="M 281 1959 
L 1881 1959 
L 1881 1472 
L 281 1472 
L 281 1959 
z
" transform="scale(0.015625)"/>
        <path id="DejaVuSerif-63" d="M 3291 997 
Q 3169 466 2822 187 
Q 2475 -91 1925 -91 
Q 1200 -91 759 389 
Q 319 869 319 1663 
Q 319 2459 759 2936 
Q 1200 3413 1925 3413 
Q 2241 3413 2553 3339 
Q 2866 3266 3181 3116 
L 3181 2266 
L 2847 2266 
Q 2781 2703 2561 2903 
Q 2341 3103 1931 3103 
Q 1466 3103 1228 2742 
Q 991 2381 991 1663 
Q 991 944 1227 581 
Q 1463 219 1931 219 
Q 2303 219 2525 412 
Q 2747 606 2828 997 
L 3291 997 
z
" transform="scale(0.015625)"/>
        <path id="DejaVuSerif-66" d="M 2753 4078 
L 2450 4078 
Q 2447 4313 2317 4434 
Q 2188 4556 1941 4556 
Q 1619 4556 1487 4379 
Q 1356 4203 1356 3750 
L 1356 3322 
L 2284 3322 
L 2284 2988 
L 1356 2988 
L 1356 331 
L 2094 331 
L 2094 0 
L 231 0 
L 231 331 
L 781 331 
L 781 2988 
L 231 2988 
L 231 3322 
L 781 3322 
L 781 3738 
Q 781 4294 1070 4578 
Q 1359 4863 1919 4863 
Q 2128 4863 2337 4825 
Q 2547 4788 2753 4709 
L 2753 4078 
z
" transform="scale(0.015625)"/>
        <path id="DejaVuSerif-69" d="M 622 4353 
Q 622 4497 726 4603 
Q 831 4709 978 4709 
Q 1122 4709 1226 4603 
Q 1331 4497 1331 4353 
Q 1331 4206 1228 4103 
Q 1125 4000 978 4000 
Q 831 4000 726 4103 
Q 622 4206 622 4353 
z
M 1356 331 
L 1900 331 
L 1900 0 
L 231 0 
L 231 331 
L 781 331 
L 781 2988 
L 231 2988 
L 231 3322 
L 1356 3322 
L 1356 331 
z
" transform="scale(0.015625)"/>
        <path id="DejaVuSerif-65" d="M 3469 1600 
L 991 1600 
L 991 1575 
Q 991 903 1244 561 
Q 1497 219 1991 219 
Q 2369 219 2611 417 
Q 2853 616 2950 1006 
L 3413 1006 
Q 3275 459 2904 184 
Q 2534 -91 1931 -91 
Q 1203 -91 761 389 
Q 319 869 319 1663 
Q 319 2450 753 2931 
Q 1188 3413 1894 3413 
Q 2647 3413 3050 2948 
Q 3453 2484 3469 1600 
z
M 2791 1931 
Q 2772 2513 2545 2808 
Q 2319 3103 1894 3103 
Q 1497 3103 1269 2806 
Q 1041 2509 991 1931 
L 2791 1931 
z
" transform="scale(0.015625)"/>
       </defs>
       <use xlink:href="#DejaVuSerif-6e"/>
       <use xlink:href="#DejaVuSerif-6f" x="64.404297"/>
       <use xlink:href="#DejaVuSerif-74" x="124.609375"/>
       <use xlink:href="#DejaVuSerif-2d" x="164.794922"/>
       <use xlink:href="#DejaVuSerif-63" x="198.583984"/>
       <use xlink:href="#DejaVuSerif-6f" x="254.589844"/>
       <use xlink:href="#DejaVuSerif-6e" x="314.794922"/>
       <use xlink:href="#DejaVuSerif-66" x="379.199219"/>
       <use xlink:href="#DejaVuSerif-69" x="416.210938"/>
       <use xlink:href="#DejaVuSerif-64" x="448.193359"/>
       <use xlink:href="#DejaVuSerif-65" x="512.207031"/>
       <use xlink:href="#DejaVuSerif-6e" x="571.386719"/>
       <use xlink:href="#DejaVuSerif-74" x="635.791016"/>
      </g>
     </g>
    </g>
    <g id="xtick_4">
     <g id="line2d_4">
      <g>
       <use xlink:href="#m7d322e3d2a" x="158.353375" y="232.235625" style="fill: #ffffff; stroke: #000000; stroke-width: 0.8"/>
      </g>
     </g>
     <g id="text_4">
      <!-- feminine -->
      <g transform="translate(161.664625 288.895625) rotate(-90) scale(0.12 -0.12)">
       <use xlink:href="#DejaVuSerif-66"/>
       <use xlink:href="#DejaVuSerif-65" x="37.011719"/>
       <use xlink:href="#DejaVuSerif-6d" x="96.191406"/>
       <use xlink:href="#DejaVuSerif-69" x="191.015625"/>
       <use xlink:href="#DejaVuSerif-6e" x="222.998047"/>
       <use xlink:href="#DejaVuSerif-69" x="287.402344"/>
       <use xlink:href="#DejaVuSerif-6e" x="319.384766"/>
       <use xlink:href="#DejaVuSerif-65" x="383.789062"/>
      </g>
     </g>
    </g>
    <g id="xtick_5">
     <g id="line2d_5">
      <g>
       <use xlink:href="#m7d322e3d2a" x="183.526125" y="232.235625" style="fill: #ffffff; stroke: #000000; stroke-width: 0.8"/>
      </g>
     </g>
     <g id="text_5">
      <!-- proud -->
      <g transform="translate(186.837375 271.788125) rotate(-90) scale(0.12 -0.12)">
       <defs>
        <path id="DejaVuSerif-70" d="M 1313 1825 
L 1313 1497 
Q 1313 897 1542 583 
Q 1772 269 2209 269 
Q 2650 269 2876 622 
Q 3103 975 3103 1663 
Q 3103 2353 2876 2703 
Q 2650 3053 2209 3053 
Q 1772 3053 1542 2737 
Q 1313 2422 1313 1825 
z
M 738 2988 
L 184 2988 
L 184 3322 
L 1313 3322 
L 1313 2803 
Q 1481 3116 1742 3264 
Q 2003 3413 2388 3413 
Q 3000 3413 3387 2928 
Q 3775 2444 3775 1663 
Q 3775 881 3387 395 
Q 3000 -91 2388 -91 
Q 2003 -91 1742 57 
Q 1481 206 1313 519 
L 1313 -997 
L 1856 -997 
L 1856 -1331 
L 184 -1331 
L 184 -997 
L 738 -997 
L 738 2988 
z
" transform="scale(0.015625)"/>
        <path id="DejaVuSerif-75" d="M 2266 3322 
L 3341 3322 
L 3341 331 
L 3884 331 
L 3884 0 
L 2766 0 
L 2766 588 
Q 2606 256 2353 82 
Q 2100 -91 1766 -91 
Q 1213 -91 952 223 
Q 691 538 691 1209 
L 691 2988 
L 172 2988 
L 172 3322 
L 1269 3322 
L 1269 1388 
Q 1269 781 1417 556 
Q 1566 331 1947 331 
Q 2347 331 2556 625 
Q 2766 919 2766 1478 
L 2766 2988 
L 2266 2988 
L 2266 3322 
z
" transform="scale(0.015625)"/>
       </defs>
       <use xlink:href="#DejaVuSerif-70"/>
       <use xlink:href="#DejaVuSerif-72" x="64.013672"/>
       <use xlink:href="#DejaVuSerif-6f" x="111.816406"/>
       <use xlink:href="#DejaVuSerif-75" x="172.021484"/>
       <use xlink:href="#DejaVuSerif-64" x="236.425781"/>
      </g>
     </g>
    </g>
    <g id="xtick_6">
     <g id="line2d_6">
      <g>
       <use xlink:href="#m7d322e3d2a" x="208.698875" y="232.235625" style="fill: #ffffff; stroke: #000000; stroke-width: 0.8"/>
      </g>
     </g>
     <g id="text_6">
      <!-- tired -->
      <g transform="translate(212.010125 264.91625) rotate(-90) scale(0.12 -0.12)">
       <use xlink:href="#DejaVuSerif-74"/>
       <use xlink:href="#DejaVuSerif-69" x="40.185547"/>
       <use xlink:href="#DejaVuSerif-72" x="72.167969"/>
       <use xlink:href="#DejaVuSerif-65" x="119.970703"/>
       <use xlink:href="#DejaVuSerif-64" x="179.150391"/>
      </g>
     </g>
    </g>
    <g id="xtick_7">
     <g id="line2d_7">
      <g>
       <use xlink:href="#m7d322e3d2a" x="233.871625" y="232.235625" style="fill: #ffffff; stroke: #000000; stroke-width: 0.8"/>
      </g>
     </g>
     <g id="text_7">
      <!-- old -->
      <g transform="translate(237.182875 254.48) rotate(-90) scale(0.12 -0.12)">
       <use xlink:href="#DejaVuSerif-6f"/>
       <use xlink:href="#DejaVuSerif-6c" x="60.205078"/>
       <use xlink:href="#DejaVuSerif-64" x="92.1875"/>
      </g>
     </g>
    </g>
    <g id="xtick_8">
     <g id="line2d_8">
      <g>
       <use xlink:href="#m7d322e3d2a" x="259.044375" y="232.235625" style="fill: #ffffff; stroke: #000000; stroke-width: 0.8"/>
      </g>
     </g>
     <g id="text_8">
      <!-- happy -->
      <g transform="translate(262.270312 272.763125) rotate(-90) scale(0.12 -0.12)">
       <defs>
        <path id="DejaVuSerif-68" d="M 263 0 
L 263 331 
L 781 331 
L 781 4531 
L 231 4531 
L 231 4863 
L 1356 4863 
L 1356 2731 
Q 1516 3069 1770 3241 
Q 2025 3413 2363 3413 
Q 2913 3413 3172 3097 
Q 3431 2781 3431 2113 
L 3431 331 
L 3944 331 
L 3944 0 
L 2356 0 
L 2356 331 
L 2853 331 
L 2853 1931 
Q 2853 2541 2704 2764 
Q 2556 2988 2175 2988 
Q 1775 2988 1565 2697 
Q 1356 2406 1356 1850 
L 1356 331 
L 1856 331 
L 1856 0 
L 263 0 
z
" transform="scale(0.015625)"/>
        <path id="DejaVuSerif-79" d="M 1381 -609 
L 1600 -56 
L 359 2988 
L -19 2988 
L -19 3322 
L 1509 3322 
L 1509 2988 
L 978 2988 
L 1913 703 
L 2847 2988 
L 2350 2988 
L 2350 3322 
L 3597 3322 
L 3597 2988 
L 3225 2988 
L 1703 -750 
Q 1547 -1138 1356 -1280 
Q 1166 -1422 819 -1422 
Q 672 -1422 517 -1397 
Q 363 -1372 206 -1325 
L 206 -691 
L 500 -691 
Q 519 -903 608 -995 
Q 697 -1088 884 -1088 
Q 1056 -1088 1161 -992 
Q 1266 -897 1381 -609 
z
" transform="scale(0.015625)"/>
       </defs>
       <use xlink:href="#DejaVuSerif-68"/>
       <use xlink:href="#DejaVuSerif-61" x="64.404297"/>
       <use xlink:href="#DejaVuSerif-70" x="124.023438"/>
       <use xlink:href="#DejaVuSerif-70" x="188.037109"/>
       <use xlink:href="#DejaVuSerif-79" x="252.050781"/>
      </g>
     </g>
    </g>
    <g id="xtick_9">
     <g id="line2d_9">
      <g>
       <use xlink:href="#m7d322e3d2a" x="284.217125" y="232.235625" style="fill: #ffffff; stroke: #000000; stroke-width: 0.8"/>
      </g>
     </g>
     <g id="text_9">
      <!-- musical -->
      <g transform="translate(287.528375 282.5525) rotate(-90) scale(0.12 -0.12)">
       <use xlink:href="#DejaVuSerif-6d"/>
       <use xlink:href="#DejaVuSerif-75" x="94.824219"/>
       <use xlink:href="#DejaVuSerif-73" x="159.228516"/>
       <use xlink:href="#DejaVuSerif-69" x="210.546875"/>
       <use xlink:href="#DejaVuSerif-63" x="242.529297"/>
       <use xlink:href="#DejaVuSerif-61" x="298.535156"/>
       <use xlink:href="#DejaVuSerif-6c" x="358.154297"/>
      </g>
     </g>
    </g>
    <g id="xtick_10">
     <g id="line2d_10">
      <g>
       <use xlink:href="#m7d322e3d2a" x="309.389875" y="232.235625" style="fill: #ffffff; stroke: #000000; stroke-width: 0.8"/>
      </g>
     </g>
     <g id="text_10">
      <!-- childish -->
      <g transform="translate(312.701125 283.266875) rotate(-90) scale(0.12 -0.12)">
       <use xlink:href="#DejaVuSerif-63"/>
       <use xlink:href="#DejaVuSerif-68" x="56.005859"/>
       <use xlink:href="#DejaVuSerif-69" x="120.410156"/>
       <use xlink:href="#DejaVuSerif-6c" x="152.392578"/>
       <use xlink:href="#DejaVuSerif-64" x="184.375"/>
       <use xlink:href="#DejaVuSerif-69" x="248.388672"/>
       <use xlink:href="#DejaVuSerif-73" x="280.371094"/>
       <use xlink:href="#DejaVuSerif-68" x="331.689453"/>
      </g>
     </g>
    </g>
    <g id="xtick_11">
     <g id="line2d_11">
      <g>
       <use xlink:href="#m7d322e3d2a" x="334.562625" y="232.235625" style="fill: #ffffff; stroke: #000000; stroke-width: 0.8"/>
      </g>
     </g>
     <g id="text_11">
      <!-- giant -->
      <g transform="translate(337.70325 266.961875) rotate(-90) scale(0.12 -0.12)">
       <defs>
        <path id="DejaVuSerif-67" d="M 3359 2988 
L 3359 72 
Q 3359 -644 2965 -1033 
Q 2572 -1422 1844 -1422 
Q 1516 -1422 1216 -1362 
Q 916 -1303 641 -1184 
L 641 -488 
L 941 -488 
Q 997 -813 1206 -963 
Q 1416 -1113 1806 -1113 
Q 2313 -1113 2548 -827 
Q 2784 -541 2784 72 
L 2784 519 
Q 2616 206 2355 57 
Q 2094 -91 1709 -91 
Q 1097 -91 708 395 
Q 319 881 319 1663 
Q 319 2444 706 2928 
Q 1094 3413 1709 3413 
Q 2094 3413 2355 3264 
Q 2616 3116 2784 2803 
L 2784 3322 
L 3909 3322 
L 3909 2988 
L 3359 2988 
z
M 2784 1825 
Q 2784 2422 2554 2737 
Q 2325 3053 1888 3053 
Q 1444 3053 1217 2703 
Q 991 2353 991 1663 
Q 991 975 1217 622 
Q 1444 269 1888 269 
Q 2325 269 2554 583 
Q 2784 897 2784 1497 
L 2784 1825 
z
" transform="scale(0.015625)"/>
       </defs>
       <use xlink:href="#DejaVuSerif-67"/>
       <use xlink:href="#DejaVuSerif-69" x="64.013672"/>
       <use xlink:href="#DejaVuSerif-61" x="95.996094"/>
       <use xlink:href="#DejaVuSerif-6e" x="155.615234"/>
       <use xlink:href="#DejaVuSerif-74" x="220.019531"/>
      </g>
     </g>
    </g>
    <g id="xtick_12">
     <g id="line2d_12">
      <g>
       <use xlink:href="#m7d322e3d2a" x="359.735375" y="232.235625" style="fill: #ffffff; stroke: #000000; stroke-width: 0.8"/>
      </g>
     </g>
     <g id="text_12">
      <!-- active -->
      <g transform="translate(363.046625 272.15375) rotate(-90) scale(0.12 -0.12)">
       <defs>
        <path id="DejaVuSerif-76" d="M 1581 0 
L 359 2988 
L -19 2988 
L -19 3322 
L 1509 3322 
L 1509 2988 
L 978 2988 
L 1913 703 
L 2847 2988 
L 2350 2988 
L 2350 3322 
L 3597 3322 
L 3597 2988 
L 3225 2988 
L 2003 0 
L 1581 0 
z
" transform="scale(0.015625)"/>
       </defs>
       <use xlink:href="#DejaVuSerif-61"/>
       <use xlink:href="#DejaVuSerif-63" x="59.619141"/>
       <use xlink:href="#DejaVuSerif-74" x="115.625"/>
       <use xlink:href="#DejaVuSerif-69" x="155.810547"/>
       <use xlink:href="#DejaVuSerif-76" x="187.792969"/>
       <use xlink:href="#DejaVuSerif-65" x="244.287109"/>
      </g>
     </g>
    </g>
    <g id="xtick_13">
     <g id="line2d_13">
      <g>
       <use xlink:href="#m7d322e3d2a" x="384.908125" y="232.235625" style="fill: #ffffff; stroke: #000000; stroke-width: 0.8"/>
      </g>
     </g>
     <g id="text_13">
      <!-- masculinity -->
      <g transform="translate(388.134062 305.721875) rotate(-90) scale(0.12 -0.12)">
       <use xlink:href="#DejaVuSerif-6d"/>
       <use xlink:href="#DejaVuSerif-61" x="94.824219"/>
       <use xlink:href="#DejaVuSerif-73" x="154.443359"/>
       <use xlink:href="#DejaVuSerif-63" x="205.761719"/>
       <use xlink:href="#DejaVuSerif-75" x="261.767578"/>
       <use xlink:href="#DejaVuSerif-6c" x="326.171875"/>
       <use xlink:href="#DejaVuSerif-69" x="358.154297"/>
       <use xlink:href="#DejaVuSerif-6e" x="390.136719"/>
       <use xlink:href="#DejaVuSerif-69" x="454.541016"/>
       <use xlink:href="#DejaVuSerif-74" x="486.523438"/>
       <use xlink:href="#DejaVuSerif-79" x="526.708984"/>
      </g>
     </g>
    </g>
    <g id="xtick_14">
     <g id="line2d_14">
      <g>
       <use xlink:href="#m7d322e3d2a" x="410.080875" y="232.235625" style="fill: #ffffff; stroke: #000000; stroke-width: 0.8"/>
      </g>
     </g>
     <g id="text_14">
      <!-- chimpira -->
      <g transform="translate(413.392125 289.8125) rotate(-90) scale(0.12 -0.12)">
       <use xlink:href="#DejaVuSerif-63"/>
       <use xlink:href="#DejaVuSerif-68" x="56.005859"/>
       <use xlink:href="#DejaVuSerif-69" x="120.410156"/>
       <use xlink:href="#DejaVuSerif-6d" x="152.392578"/>
       <use xlink:href="#DejaVuSerif-70" x="247.216797"/>
       <use xlink:href="#DejaVuSerif-69" x="311.230469"/>
       <use xlink:href="#DejaVuSerif-72" x="343.212891"/>
       <use xlink:href="#DejaVuSerif-61" x="391.015625"/>
      </g>
     </g>
    </g>
    <g id="xtick_15">
     <g id="line2d_15">
      <g>
       <use xlink:href="#m7d322e3d2a" x="435.253625" y="232.235625" style="fill: #ffffff; stroke: #000000; stroke-width: 0.8"/>
      </g>
     </g>
     <g id="text_15">
      <!-- angry -->
      <g transform="translate(438.39425 270.816875) rotate(-90) scale(0.12 -0.12)">
       <use xlink:href="#DejaVuSerif-61"/>
       <use xlink:href="#DejaVuSerif-6e" x="59.619141"/>
       <use xlink:href="#DejaVuSerif-67" x="124.023438"/>
       <use xlink:href="#DejaVuSerif-72" x="188.037109"/>
       <use xlink:href="#DejaVuSerif-79" x="235.839844"/>
      </g>
     </g>
    </g>
    <g id="text_16">
     <!-- style -->
     <g transform="translate(244.694062 329.97375) scale(0.12 -0.12)">
      <use xlink:href="#DejaVuSerif-73"/>
      <use xlink:href="#DejaVuSerif-74" x="51.318359"/>
      <use xlink:href="#DejaVuSerif-79" x="91.503906"/>
      <use xlink:href="#DejaVuSerif-6c" x="147.998047"/>
      <use xlink:href="#DejaVuSerif-65" x="179.980469"/>
     </g>
    </g>
   </g>
   <g id="matplotlib.axis_2">
    <g id="ytick_1">
     <g id="line2d_16">
      <defs>
       <path id="m31f8f044d2" d="M 0 0 
L 3.5 0 
" style="stroke: #000000; stroke-width: 0.8"/>
      </defs>
      <g>
       <use xlink:href="#m31f8f044d2" x="70.24875" y="232.235625" style="fill: #ffffff; stroke: #000000; stroke-width: 0.8"/>
      </g>
     </g>
     <g id="text_17">
      <!-- 0 -->
      <g transform="translate(59.11375 236.794688) scale(0.12 -0.12)">
       <defs>
        <path id="DejaVuSerif-30" d="M 2034 219 
Q 2513 219 2750 744 
Q 2988 1269 2988 2328 
Q 2988 3391 2750 3916 
Q 2513 4441 2034 4441 
Q 1556 4441 1318 3916 
Q 1081 3391 1081 2328 
Q 1081 1269 1318 744 
Q 1556 219 2034 219 
z
M 2034 -91 
Q 1275 -91 848 546 
Q 422 1184 422 2328 
Q 422 3475 848 4112 
Q 1275 4750 2034 4750 
Q 2797 4750 3222 4112 
Q 3647 3475 3647 2328 
Q 3647 1184 3222 546 
Q 2797 -91 2034 -91 
z
" transform="scale(0.015625)"/>
       </defs>
       <use xlink:href="#DejaVuSerif-30"/>
      </g>
     </g>
    </g>
    <g id="ytick_2">
     <g id="line2d_17">
      <g>
       <use xlink:href="#m31f8f044d2" x="70.24875" y="193.16051" style="fill: #ffffff; stroke: #000000; stroke-width: 0.8"/>
      </g>
     </g>
     <g id="text_18">
      <!-- 2000 -->
      <g transform="translate(36.20875 197.719573) scale(0.12 -0.12)">
       <defs>
        <path id="DejaVuSerif-32" d="M 819 3553 
L 469 3553 
L 469 4384 
Q 803 4563 1142 4656 
Q 1481 4750 1806 4750 
Q 2534 4750 2956 4397 
Q 3378 4044 3378 3438 
Q 3378 2753 2422 1800 
Q 2347 1728 2309 1691 
L 1131 513 
L 3078 513 
L 3078 1088 
L 3444 1088 
L 3444 0 
L 434 0 
L 434 341 
L 1850 1753 
Q 2319 2222 2519 2614 
Q 2719 3006 2719 3438 
Q 2719 3909 2473 4175 
Q 2228 4441 1797 4441 
Q 1350 4441 1106 4219 
Q 863 3997 819 3553 
z
" transform="scale(0.015625)"/>
       </defs>
       <use xlink:href="#DejaVuSerif-32"/>
       <use xlink:href="#DejaVuSerif-30" x="63.623047"/>
       <use xlink:href="#DejaVuSerif-30" x="127.246094"/>
       <use xlink:href="#DejaVuSerif-30" x="190.869141"/>
      </g>
     </g>
    </g>
    <g id="ytick_3">
     <g id="line2d_18">
      <g>
       <use xlink:href="#m31f8f044d2" x="70.24875" y="154.085395" style="fill: #ffffff; stroke: #000000; stroke-width: 0.8"/>
      </g>
     </g>
     <g id="text_19">
      <!-- 4000 -->
      <g transform="translate(36.20875 158.644458) scale(0.12 -0.12)">
       <defs>
        <path id="DejaVuSerif-34" d="M 2234 1581 
L 2234 4063 
L 641 1581 
L 2234 1581 
z
M 3609 0 
L 1484 0 
L 1484 331 
L 2234 331 
L 2234 1247 
L 197 1247 
L 197 1588 
L 2241 4750 
L 2859 4750 
L 2859 1581 
L 3750 1581 
L 3750 1247 
L 2859 1247 
L 2859 331 
L 3609 331 
L 3609 0 
z
" transform="scale(0.015625)"/>
       </defs>
       <use xlink:href="#DejaVuSerif-34"/>
       <use xlink:href="#DejaVuSerif-30" x="63.623047"/>
       <use xlink:href="#DejaVuSerif-30" x="127.246094"/>
       <use xlink:href="#DejaVuSerif-30" x="190.869141"/>
      </g>
     </g>
    </g>
    <g id="ytick_4">
     <g id="line2d_19">
      <g>
       <use xlink:href="#m31f8f044d2" x="70.24875" y="115.010281" style="fill: #ffffff; stroke: #000000; stroke-width: 0.8"/>
      </g>
     </g>
     <g id="text_20">
      <!-- 6000 -->
      <g transform="translate(36.20875 119.569343) scale(0.12 -0.12)">
       <defs>
        <path id="DejaVuSerif-36" d="M 2094 219 
Q 2534 219 2771 542 
Q 3009 866 3009 1472 
Q 3009 2078 2771 2401 
Q 2534 2725 2094 2725 
Q 1647 2725 1412 2412 
Q 1178 2100 1178 1509 
Q 1178 888 1415 553 
Q 1653 219 2094 219 
z
M 1075 2569 
Q 1288 2803 1556 2918 
Q 1825 3034 2163 3034 
Q 2859 3034 3264 2615 
Q 3669 2197 3669 1472 
Q 3669 763 3233 336 
Q 2797 -91 2069 -91 
Q 1278 -91 853 498 
Q 428 1088 428 2181 
Q 428 3406 931 4078 
Q 1434 4750 2350 4750 
Q 2597 4750 2869 4703 
Q 3141 4656 3425 4563 
L 3425 3794 
L 3072 3794 
Q 3034 4109 2831 4275 
Q 2628 4441 2284 4441 
Q 1678 4441 1381 3981 
Q 1084 3522 1075 2569 
z
" transform="scale(0.015625)"/>
       </defs>
       <use xlink:href="#DejaVuSerif-36"/>
       <use xlink:href="#DejaVuSerif-30" x="63.623047"/>
       <use xlink:href="#DejaVuSerif-30" x="127.246094"/>
       <use xlink:href="#DejaVuSerif-30" x="190.869141"/>
      </g>
     </g>
    </g>
    <g id="ytick_5">
     <g id="line2d_20">
      <g>
       <use xlink:href="#m31f8f044d2" x="70.24875" y="75.935166" style="fill: #ffffff; stroke: #000000; stroke-width: 0.8"/>
      </g>
     </g>
     <g id="text_21">
      <!-- 8000 -->
      <g transform="translate(36.20875 80.494228) scale(0.12 -0.12)">
       <defs>
        <path id="DejaVuSerif-38" d="M 2981 1275 
Q 2981 1775 2732 2051 
Q 2484 2328 2034 2328 
Q 1584 2328 1336 2051 
Q 1088 1775 1088 1275 
Q 1088 772 1336 495 
Q 1584 219 2034 219 
Q 2484 219 2732 495 
Q 2981 772 2981 1275 
z
M 2853 3541 
Q 2853 3966 2637 4203 
Q 2422 4441 2034 4441 
Q 1650 4441 1433 4203 
Q 1216 3966 1216 3541 
Q 1216 3113 1433 2875 
Q 1650 2638 2034 2638 
Q 2422 2638 2637 2875 
Q 2853 3113 2853 3541 
z
M 2516 2484 
Q 3047 2413 3344 2092 
Q 3641 1772 3641 1275 
Q 3641 619 3225 264 
Q 2809 -91 2034 -91 
Q 1263 -91 845 264 
Q 428 619 428 1275 
Q 428 1772 725 2092 
Q 1022 2413 1556 2484 
Q 1084 2569 832 2842 
Q 581 3116 581 3541 
Q 581 4103 968 4426 
Q 1356 4750 2034 4750 
Q 2713 4750 3100 4426 
Q 3488 4103 3488 3541 
Q 3488 3116 3236 2842 
Q 2984 2569 2516 2484 
z
" transform="scale(0.015625)"/>
       </defs>
       <use xlink:href="#DejaVuSerif-38"/>
       <use xlink:href="#DejaVuSerif-30" x="63.623047"/>
       <use xlink:href="#DejaVuSerif-30" x="127.246094"/>
       <use xlink:href="#DejaVuSerif-30" x="190.869141"/>
      </g>
     </g>
    </g>
    <g id="ytick_6">
     <g id="line2d_21">
      <g>
       <use xlink:href="#m31f8f044d2" x="70.24875" y="36.860051" style="fill: #ffffff; stroke: #000000; stroke-width: 0.8"/>
      </g>
     </g>
     <g id="text_22">
      <!-- 10000 -->
      <g transform="translate(28.57375 41.419114) scale(0.12 -0.12)">
       <defs>
        <path id="DejaVuSerif-31" d="M 909 0 
L 909 331 
L 1722 331 
L 1722 4213 
L 781 3603 
L 781 4013 
L 1919 4750 
L 2350 4750 
L 2350 331 
L 3163 331 
L 3163 0 
L 909 0 
z
" transform="scale(0.015625)"/>
       </defs>
       <use xlink:href="#DejaVuSerif-31"/>
       <use xlink:href="#DejaVuSerif-30" x="63.623047"/>
       <use xlink:href="#DejaVuSerif-30" x="127.246094"/>
       <use xlink:href="#DejaVuSerif-30" x="190.869141"/>
       <use xlink:href="#DejaVuSerif-30" x="254.492188"/>
      </g>
     </g>
    </g>
    <g id="text_23">
     <!-- frames -->
     <g transform="translate(22.078125 152.054625) rotate(-90) scale(0.12 -0.12)">
      <use xlink:href="#DejaVuSerif-66"/>
      <use xlink:href="#DejaVuSerif-72" x="37.011719"/>
      <use xlink:href="#DejaVuSerif-61" x="84.814453"/>
      <use xlink:href="#DejaVuSerif-6d" x="144.433594"/>
      <use xlink:href="#DejaVuSerif-65" x="239.257812"/>
      <use xlink:href="#DejaVuSerif-73" x="298.4375"/>
     </g>
    </g>
   </g>
   <g id="patch_18">
    <path d="M 70.24875 232.235625 
L 70.24875 29.90175 
" style="fill: none; stroke: #000000; stroke-linejoin: miter; stroke-linecap: square"/>
   </g>
   <g id="patch_19">
    <path d="M 447.84 232.235625 
L 447.84 29.90175 
" style="fill: none; stroke: #000000; stroke-linejoin: miter; stroke-linecap: square"/>
   </g>
   <g id="patch_20">
    <path d="M 70.24875 232.235625 
L 447.84 232.235625 
" style="fill: none; stroke: #000000; stroke-linejoin: miter; stroke-linecap: square"/>
   </g>
   <g id="patch_21">
    <path d="M 70.24875 29.90175 
L 447.84 29.90175 
" style="fill: none; stroke: #000000; stroke-linejoin: miter; stroke-linecap: square"/>
   </g>
   <g id="text_24">
    <!-- style_hist -->
    <g transform="translate(224.695875 23.90175) scale(0.144 -0.144)">
     <defs>
      <path id="DejaVuSerif-5f" d="M 3200 -1259 
L 3200 -1509 
L 0 -1509 
L 0 -1259 
L 3200 -1259 
z
" transform="scale(0.015625)"/>
     </defs>
     <use xlink:href="#DejaVuSerif-73"/>
     <use xlink:href="#DejaVuSerif-74" x="51.318359"/>
     <use xlink:href="#DejaVuSerif-79" x="91.503906"/>
     <use xlink:href="#DejaVuSerif-6c" x="147.998047"/>
     <use xlink:href="#DejaVuSerif-65" x="179.980469"/>
     <use xlink:href="#DejaVuSerif-5f" x="239.160156"/>
     <use xlink:href="#DejaVuSerif-68" x="289.160156"/>
     <use xlink:href="#DejaVuSerif-69" x="353.564453"/>
     <use xlink:href="#DejaVuSerif-73" x="385.546875"/>
     <use xlink:href="#DejaVuSerif-74" x="436.865234"/>
    </g>
   </g>
  </g>
 </g>
 <defs>
  <clipPath id="pdec570f9ff">
   <rect x="70.24875" y="29.90175" width="377.59125" height="202.333875"/>
  </clipPath>
 </defs>
</svg>
