<?xml version="1.0" encoding="utf-8" standalone="no"?>
<!DOCTYPE svg PUBLIC "-//W3C//DTD SVG 1.1//EN"
  "http://www.w3.org/Graphics/SVG/1.1/DTD/svg11.dtd">
<svg xmlns:xlink="http://www.w3.org/1999/xlink" width="460.8pt" height="345.6pt" viewBox="0 0 460.8 345.6" xmlns="http://www.w3.org/2000/svg" version="1.1">
 <metadata>
  <rdf:RDF xmlns:dc="http://purl.org/dc/elements/1.1/" xmlns:cc="http://creativecommons.org/ns#" xmlns:rdf="http://www.w3.org/1999/02/22-rdf-syntax-ns#">
   <cc:Work>
    <dc:type rdf:resource="http://purl.org/dc/dcmitype/StillImage"/>
    <dc:date>2023-06-23T10:37:05.558599</dc:date>
    <dc:format>image/svg+xml</dc:format>
    <dc:creator>
     <cc:Agent>
      <dc:title>Matplotlib v3.7.1, https://matplotlib.org/</dc:title>
     </cc:Agent>
    </dc:creator>
   </cc:Work>
  </rdf:RDF>
 </metadata>
 <defs>
  <style type="text/css">*{stroke-linejoin: round; stroke-linecap: butt}</style>
 </defs>
 <g id="figure_1">
  <g id="patch_1">
   <path d="M 0 345.6 
L 460.8 345.6 
L 460.8 0 
L 0 0 
z
" style="fill: #ffffff"/>
  </g>
  <g id="axes_1">
   <g id="patch_2">
    <path d="M 54.635 151.20625 
L 215.880794 151.20625 
L 215.880794 12.96 
L 54.635 12.96 
z
" style="fill: #ffffff"/>
   </g>
   <g id="matplotlib.axis_1">
    <g id="xtick_1">
     <g id="line2d_1">
      <defs>
       <path id="m2418c845e0" d="M 0 0 
L 0 -3.5 
" style="stroke: #000000; stroke-width: 0.8"/>
      </defs>
      <g>
       <use xlink:href="#m2418c845e0" x="61.964354" y="151.20625" style="fill: #ffffff; stroke: #000000; stroke-width: 0.8"/>
      </g>
     </g>
     <g id="text_1">
      <!-- 0 -->
      <g transform="translate(58.146854 163.824375) scale(0.12 -0.12)">
       <defs>
        <path id="DejaVuSerif-30" d="M 2034 219 
Q 2513 219 2750 744 
Q 2988 1269 2988 2328 
Q 2988 3391 2750 3916 
Q 2513 4441 2034 4441 
Q 1556 4441 1318 3916 
Q 1081 3391 1081 2328 
Q 1081 1269 1318 744 
Q 1556 219 2034 219 
z
M 2034 -91 
Q 1275 -91 848 546 
Q 422 1184 422 2328 
Q 422 3475 848 4112 
Q 1275 4750 2034 4750 
Q 2797 4750 3222 4112 
Q 3647 3475 3647 2328 
Q 3647 1184 3222 546 
Q 2797 -91 2034 -91 
z
" transform="scale(0.015625)"/>
       </defs>
       <use xlink:href="#DejaVuSerif-30"/>
      </g>
     </g>
    </g>
    <g id="xtick_2">
     <g id="line2d_2">
      <g>
       <use xlink:href="#m2418c845e0" x="135.331264" y="151.20625" style="fill: #ffffff; stroke: #000000; stroke-width: 0.8"/>
      </g>
     </g>
     <g id="text_2">
      <!-- 500 -->
      <g transform="translate(123.878764 163.824375) scale(0.12 -0.12)">
       <defs>
        <path id="DejaVuSerif-35" d="M 3219 4666 
L 3219 4153 
L 1081 4153 
L 1081 2816 
Q 1244 2928 1461 2984 
Q 1678 3041 1947 3041 
Q 2703 3041 3140 2622 
Q 3578 2203 3578 1478 
Q 3578 738 3136 323 
Q 2694 -91 1894 -91 
Q 1572 -91 1234 -12 
Q 897 66 544 225 
L 544 1131 
L 897 1131 
Q 925 688 1179 453 
Q 1434 219 1894 219 
Q 2388 219 2653 544 
Q 2919 869 2919 1478 
Q 2919 2084 2655 2407 
Q 2391 2731 1894 2731 
Q 1613 2731 1398 2631 
Q 1184 2531 1019 2322 
L 750 2322 
L 750 4666 
L 3219 4666 
z
" transform="scale(0.015625)"/>
       </defs>
       <use xlink:href="#DejaVuSerif-35"/>
       <use xlink:href="#DejaVuSerif-30" x="63.623047"/>
       <use xlink:href="#DejaVuSerif-30" x="127.246094"/>
      </g>
     </g>
    </g>
    <g id="xtick_3">
     <g id="line2d_3">
      <g>
       <use xlink:href="#m2418c845e0" x="208.698174" y="151.20625" style="fill: #ffffff; stroke: #000000; stroke-width: 0.8"/>
      </g>
     </g>
     <g id="text_3">
      <!-- 1000 -->
      <g transform="translate(193.428174 163.824375) scale(0.12 -0.12)">
       <defs>
        <path id="DejaVuSerif-31" d="M 909 0 
L 909 331 
L 1722 331 
L 1722 4213 
L 781 3603 
L 781 4013 
L 1919 4750 
L 2350 4750 
L 2350 331 
L 3163 331 
L 3163 0 
L 909 0 
z
" transform="scale(0.015625)"/>
       </defs>
       <use xlink:href="#DejaVuSerif-31"/>
       <use xlink:href="#DejaVuSerif-30" x="63.623047"/>
       <use xlink:href="#DejaVuSerif-30" x="127.246094"/>
       <use xlink:href="#DejaVuSerif-30" x="190.869141"/>
      </g>
     </g>
    </g>
   </g>
   <g id="matplotlib.axis_2">
    <g id="ytick_1">
     <g id="line2d_4">
      <defs>
       <path id="m8363e13fb6" d="M 0 0 
L 3.5 0 
" style="stroke: #000000; stroke-width: 0.8"/>
      </defs>
      <g>
       <use xlink:href="#m8363e13fb6" x="54.635" y="144.95259" style="fill: #ffffff; stroke: #000000; stroke-width: 0.8"/>
      </g>
     </g>
     <g id="text_4">
      <!-- 0 -->
      <g transform="translate(43.5 149.511652) scale(0.12 -0.12)">
       <use xlink:href="#DejaVuSerif-30"/>
      </g>
     </g>
    </g>
    <g id="ytick_2">
     <g id="line2d_5">
      <g>
       <use xlink:href="#m8363e13fb6" x="54.635" y="115.961345" style="fill: #ffffff; stroke: #000000; stroke-width: 0.8"/>
      </g>
     </g>
     <g id="text_5">
      <!-- 5000 -->
      <g transform="translate(20.595 120.520407) scale(0.12 -0.12)">
       <use xlink:href="#DejaVuSerif-35"/>
       <use xlink:href="#DejaVuSerif-30" x="63.623047"/>
       <use xlink:href="#DejaVuSerif-30" x="127.246094"/>
       <use xlink:href="#DejaVuSerif-30" x="190.869141"/>
      </g>
     </g>
    </g>
    <g id="ytick_3">
     <g id="line2d_6">
      <g>
       <use xlink:href="#m8363e13fb6" x="54.635" y="86.9701" style="fill: #ffffff; stroke: #000000; stroke-width: 0.8"/>
      </g>
     </g>
     <g id="text_6">
      <!-- 10000 -->
      <g transform="translate(12.96 91.529163) scale(0.12 -0.12)">
       <use xlink:href="#DejaVuSerif-31"/>
       <use xlink:href="#DejaVuSerif-30" x="63.623047"/>
       <use xlink:href="#DejaVuSerif-30" x="127.246094"/>
       <use xlink:href="#DejaVuSerif-30" x="190.869141"/>
       <use xlink:href="#DejaVuSerif-30" x="254.492188"/>
      </g>
     </g>
    </g>
    <g id="ytick_4">
     <g id="line2d_7">
      <g>
       <use xlink:href="#m8363e13fb6" x="54.635" y="57.978855" style="fill: #ffffff; stroke: #000000; stroke-width: 0.8"/>
      </g>
     </g>
     <g id="text_7">
      <!-- 15000 -->
      <g transform="translate(12.96 62.537918) scale(0.12 -0.12)">
       <use xlink:href="#DejaVuSerif-31"/>
       <use xlink:href="#DejaVuSerif-35" x="63.623047"/>
       <use xlink:href="#DejaVuSerif-30" x="127.246094"/>
       <use xlink:href="#DejaVuSerif-30" x="190.869141"/>
       <use xlink:href="#DejaVuSerif-30" x="254.492188"/>
      </g>
     </g>
    </g>
    <g id="ytick_5">
     <g id="line2d_8">
      <g>
       <use xlink:href="#m8363e13fb6" x="54.635" y="28.98761" style="fill: #ffffff; stroke: #000000; stroke-width: 0.8"/>
      </g>
     </g>
     <g id="text_8">
      <!-- 20000 -->
      <g transform="translate(12.96 33.546673) scale(0.12 -0.12)">
       <defs>
        <path id="DejaVuSerif-32" d="M 819 3553 
L 469 3553 
L 469 4384 
Q 803 4563 1142 4656 
Q 1481 4750 1806 4750 
Q 2534 4750 2956 4397 
Q 3378 4044 3378 3438 
Q 3378 2753 2422 1800 
Q 2347 1728 2309 1691 
L 1131 513 
L 3078 513 
L 3078 1088 
L 3444 1088 
L 3444 0 
L 434 0 
L 434 341 
L 1850 1753 
Q 2319 2222 2519 2614 
Q 2719 3006 2719 3438 
Q 2719 3909 2473 4175 
Q 2228 4441 1797 4441 
Q 1350 4441 1106 4219 
Q 863 3997 819 3553 
z
" transform="scale(0.015625)"/>
       </defs>
       <use xlink:href="#DejaVuSerif-32"/>
       <use xlink:href="#DejaVuSerif-30" x="63.623047"/>
       <use xlink:href="#DejaVuSerif-30" x="127.246094"/>
       <use xlink:href="#DejaVuSerif-30" x="190.869141"/>
       <use xlink:href="#DejaVuSerif-30" x="254.492188"/>
      </g>
     </g>
    </g>
   </g>
   <g id="line2d_9">
    <path d="M 61.964354 19.24392 
L 62.111088 19.24392 
L 62.257822 51.428675 
L 62.404556 51.428675 
L 62.55129 75.920505 
L 62.698023 75.920505 
L 62.844757 100.790522 
L 62.991491 100.790522 
L 63.138225 116.704866 
L 63.284959 116.704866 
L 63.431692 128.127747 
L 63.578426 128.127747 
L 63.72516 135.332873 
L 63.871894 135.332873 
L 64.018628 139.247983 
L 64.165362 139.247983 
L 64.312095 141.661145 
L 64.458829 141.661145 
L 64.605563 142.456369 
L 64.752297 142.456369 
L 64.899031 143.109634 
L 65.045765 143.109634 
L 65.192498 143.382266 
L 65.339232 143.382266 
L 65.485966 143.645627 
L 65.926167 143.674548 
L 66.072901 143.925508 
L 66.219635 143.925508 
L 66.513103 144.055948 
L 67.686973 144.269891 
L 68.273909 144.378185 
L 68.567376 144.443225 
L 69.154311 144.437868 
L 70.62165 144.579635 
L 70.768383 144.365771 
L 70.915117 144.365771 
L 71.208585 144.528054 
L 72.235722 144.622852 
L 77.664873 144.681843 
L 78.105074 144.746501 
L 80.599549 144.758604 
L 80.746283 144.579479 
L 80.893017 144.579479 
L 81.186485 144.711278 
L 81.479952 144.773603 
L 83.827693 144.741569 
L 83.974427 144.516132 
L 84.414629 144.40864 
L 84.561363 144.769507 
L 89.110111 144.701041 
L 89.256845 143.734248 
L 89.403579 143.734248 
L 89.697046 143.600002 
L 89.84378 144.719275 
L 92.338255 144.828326 
L 97.327205 144.843479 
L 97.473939 144.444428 
L 97.620672 144.444428 
L 97.767406 144.738224 
L 98.794543 144.84681 
L 102.90309 144.855213 
L 103.930227 144.840158 
L 107.89204 144.811936 
L 108.038774 142.782218 
L 108.185507 142.782218 
L 108.332241 144.203446 
L 108.478975 144.203446 
L 108.625709 144.812239 
L 133.130257 144.863144 
L 133.276991 142.151576 
L 133.423724 142.151576 
L 133.570458 144.679777 
L 133.717192 144.679777 
L 134.01066 144.82194 
L 135.037796 144.871138 
L 164.824762 144.897992 
L 164.971496 142.911228 
L 165.11823 142.911228 
L 165.264963 144.642943 
L 165.411697 144.642943 
L 165.558431 144.860078 
L 189.476044 144.891988 
L 189.622777 143.636623 
L 189.769511 143.636623 
L 189.916245 144.64893 
L 190.062979 144.64893 
L 190.209713 144.877245 
L 208.55144 144.922222 
L 208.55144 144.922222 
" clip-path="url(#pe41e634565)" style="fill: none; stroke: #1f77b4; stroke-width: 1.5; stroke-linecap: square"/>
   </g>
   <g id="line2d_10">
    <path d="M 61.964354 42.836342 
L 62.111088 42.836342 
L 62.257822 64.443175 
L 62.404556 64.443175 
L 62.55129 88.586598 
L 62.698023 88.586598 
L 62.844757 110.281242 
L 62.991491 110.281242 
L 63.138225 123.554995 
L 63.284959 123.554995 
L 63.431692 131.65238 
L 63.578426 131.65238 
L 63.72516 137.223298 
L 63.871894 137.223298 
L 64.018628 140.244932 
L 64.165362 140.244932 
L 64.312095 141.54864 
L 64.458829 141.54864 
L 64.605563 142.447432 
L 64.752297 142.447432 
L 64.899031 142.766378 
L 65.045765 142.766378 
L 65.192498 143.271314 
L 65.339232 143.271314 
L 65.485966 143.508796 
L 65.6327 143.508796 
L 65.926167 143.635182 
L 66.219635 143.652133 
L 66.366369 143.897606 
L 66.513103 143.897606 
L 66.659837 143.680155 
L 66.80657 143.680155 
L 66.953304 143.976458 
L 67.393506 144.087453 
L 69.447779 144.326601 
L 69.741247 144.265029 
L 70.328182 144.418994 
L 70.474916 144.230005 
L 70.915117 144.308016 
L 71.502053 144.459397 
L 71.79552 144.309074 
L 71.942254 144.529155 
L 75.023664 144.546341 
L 75.170398 143.576525 
L 75.317132 143.576525 
L 75.463866 144.617804 
L 75.6106 144.617804 
L 75.757333 144.392213 
L 75.904067 144.392213 
L 76.050801 144.613345 
L 81.186485 144.713053 
L 81.479952 144.730539 
L 81.77342 144.652783 
L 82.066888 144.708561 
L 82.507089 144.720382 
L 83.827693 144.671032 
L 83.974427 144.251404 
L 84.121161 144.251404 
L 84.267895 144.609815 
L 84.414629 144.609815 
L 84.708096 144.726441 
L 85.588499 144.761898 
L 85.881967 144.696717 
L 86.175435 144.768232 
L 87.496039 144.753709 
L 88.816643 144.764125 
L 88.963377 144.501945 
L 89.697046 144.575093 
L 89.84378 144.752436 
L 97.327205 144.810263 
L 97.473939 144.493641 
L 97.620672 144.493641 
L 97.767406 144.800851 
L 104.076961 144.830201 
L 104.223694 144.599868 
L 104.370428 144.599868 
L 104.517162 144.831509 
L 107.89204 144.764975 
L 108.038774 142.077222 
L 108.185507 142.077222 
L 108.332241 144.753427 
L 122.271954 144.858704 
L 124.472961 144.864834 
L 133.130257 144.784191 
L 133.276991 144.030689 
L 133.423724 144.030689 
L 133.570458 144.779727 
L 158.955409 144.890704 
L 164.824762 144.855833 
L 164.971496 144.251446 
L 165.11823 144.251446 
L 165.264963 144.825385 
L 189.476044 144.88604 
L 189.622777 144.540461 
L 189.769511 144.540461 
L 189.916245 144.852718 
L 208.55144 144.882119 
L 208.55144 144.882119 
" clip-path="url(#pe41e634565)" style="fill: none; stroke: #ff7f0e; stroke-width: 1.5; stroke-linecap: square"/>
   </g>
   <g id="patch_3">
    <path d="M 54.635 151.20625 
L 54.635 12.96 
" style="fill: none; stroke: #000000; stroke-linejoin: miter; stroke-linecap: square"/>
   </g>
   <g id="patch_4">
    <path d="M 215.880794 151.20625 
L 215.880794 12.96 
" style="fill: none; stroke: #000000; stroke-linejoin: miter; stroke-linecap: square"/>
   </g>
   <g id="patch_5">
    <path d="M 54.635 151.20625 
L 215.880794 151.20625 
" style="fill: none; stroke: #000000; stroke-linejoin: miter; stroke-linecap: square"/>
   </g>
   <g id="patch_6">
    <path d="M 54.635 12.96 
L 215.880794 12.96 
" style="fill: none; stroke: #000000; stroke-linejoin: miter; stroke-linecap: square"/>
   </g>
  </g>
  <g id="axes_2">
   <g id="patch_7">
    <path d="M 278.555 151.20625 
L 439.800794 151.20625 
L 439.800794 12.96 
L 278.555 12.96 
z
" style="fill: #ffffff"/>
   </g>
   <g id="matplotlib.axis_3">
    <g id="xtick_4">
     <g id="line2d_11">
      <g>
       <use xlink:href="#m2418c845e0" x="285.884354" y="151.20625" style="fill: #ffffff; stroke: #000000; stroke-width: 0.8"/>
      </g>
     </g>
     <g id="text_9">
      <!-- 0 -->
      <g transform="translate(282.066854 163.824375) scale(0.12 -0.12)">
       <use xlink:href="#DejaVuSerif-30"/>
      </g>
     </g>
    </g>
    <g id="xtick_5">
     <g id="line2d_12">
      <g>
       <use xlink:href="#m2418c845e0" x="359.251264" y="151.20625" style="fill: #ffffff; stroke: #000000; stroke-width: 0.8"/>
      </g>
     </g>
     <g id="text_10">
      <!-- 500 -->
      <g transform="translate(347.798764 163.824375) scale(0.12 -0.12)">
       <use xlink:href="#DejaVuSerif-35"/>
       <use xlink:href="#DejaVuSerif-30" x="63.623047"/>
       <use xlink:href="#DejaVuSerif-30" x="127.246094"/>
      </g>
     </g>
    </g>
    <g id="xtick_6">
     <g id="line2d_13">
      <g>
       <use xlink:href="#m2418c845e0" x="432.618174" y="151.20625" style="fill: #ffffff; stroke: #000000; stroke-width: 0.8"/>
      </g>
     </g>
     <g id="text_11">
      <!-- 1000 -->
      <g transform="translate(417.348174 163.824375) scale(0.12 -0.12)">
       <use xlink:href="#DejaVuSerif-31"/>
       <use xlink:href="#DejaVuSerif-30" x="63.623047"/>
       <use xlink:href="#DejaVuSerif-30" x="127.246094"/>
       <use xlink:href="#DejaVuSerif-30" x="190.869141"/>
      </g>
     </g>
    </g>
   </g>
   <g id="matplotlib.axis_4">
    <g id="ytick_6">
     <g id="line2d_14">
      <g>
       <use xlink:href="#m8363e13fb6" x="278.555" y="144.952493" style="fill: #ffffff; stroke: #000000; stroke-width: 0.8"/>
      </g>
     </g>
     <g id="text_12">
      <!-- 0 -->
      <g transform="translate(267.42 149.511556) scale(0.12 -0.12)">
       <use xlink:href="#DejaVuSerif-30"/>
      </g>
     </g>
    </g>
    <g id="ytick_7">
     <g id="line2d_15">
      <g>
       <use xlink:href="#m8363e13fb6" x="278.555" y="114.837762" style="fill: #ffffff; stroke: #000000; stroke-width: 0.8"/>
      </g>
     </g>
     <g id="text_13">
      <!-- 5000 -->
      <g transform="translate(244.515 119.396824) scale(0.12 -0.12)">
       <use xlink:href="#DejaVuSerif-35"/>
       <use xlink:href="#DejaVuSerif-30" x="63.623047"/>
       <use xlink:href="#DejaVuSerif-30" x="127.246094"/>
       <use xlink:href="#DejaVuSerif-30" x="190.869141"/>
      </g>
     </g>
    </g>
    <g id="ytick_8">
     <g id="line2d_16">
      <g>
       <use xlink:href="#m8363e13fb6" x="278.555" y="84.72303" style="fill: #ffffff; stroke: #000000; stroke-width: 0.8"/>
      </g>
     </g>
     <g id="text_14">
      <!-- 10000 -->
      <g transform="translate(236.88 89.282093) scale(0.12 -0.12)">
       <use xlink:href="#DejaVuSerif-31"/>
       <use xlink:href="#DejaVuSerif-30" x="63.623047"/>
       <use xlink:href="#DejaVuSerif-30" x="127.246094"/>
       <use xlink:href="#DejaVuSerif-30" x="190.869141"/>
       <use xlink:href="#DejaVuSerif-30" x="254.492188"/>
      </g>
     </g>
    </g>
    <g id="ytick_9">
     <g id="line2d_17">
      <g>
       <use xlink:href="#m8363e13fb6" x="278.555" y="54.608299" style="fill: #ffffff; stroke: #000000; stroke-width: 0.8"/>
      </g>
     </g>
     <g id="text_15">
      <!-- 15000 -->
      <g transform="translate(236.88 59.167361) scale(0.12 -0.12)">
       <use xlink:href="#DejaVuSerif-31"/>
       <use xlink:href="#DejaVuSerif-35" x="63.623047"/>
       <use xlink:href="#DejaVuSerif-30" x="127.246094"/>
       <use xlink:href="#DejaVuSerif-30" x="190.869141"/>
       <use xlink:href="#DejaVuSerif-30" x="254.492188"/>
      </g>
     </g>
    </g>
    <g id="ytick_10">
     <g id="line2d_18">
      <g>
       <use xlink:href="#m8363e13fb6" x="278.555" y="24.493567" style="fill: #ffffff; stroke: #000000; stroke-width: 0.8"/>
      </g>
     </g>
     <g id="text_16">
      <!-- 20000 -->
      <g transform="translate(236.88 29.05263) scale(0.12 -0.12)">
       <use xlink:href="#DejaVuSerif-32"/>
       <use xlink:href="#DejaVuSerif-30" x="63.623047"/>
       <use xlink:href="#DejaVuSerif-30" x="127.246094"/>
       <use xlink:href="#DejaVuSerif-30" x="190.869141"/>
       <use xlink:href="#DejaVuSerif-30" x="254.492188"/>
      </g>
     </g>
    </g>
   </g>
   <g id="line2d_19">
    <path d="M 285.884354 19.24392 
L 286.031088 19.24392 
L 286.177822 51.459609 
L 286.324556 51.459609 
L 286.47129 77.562207 
L 286.618023 77.562207 
L 286.764757 102.345082 
L 286.911491 102.345082 
L 287.058225 117.203266 
L 287.204959 117.203266 
L 287.351692 127.730707 
L 287.498426 127.730707 
L 287.64516 134.834573 
L 287.791894 134.834573 
L 287.938628 139.200599 
L 288.085362 139.200599 
L 288.232095 141.096549 
L 288.378829 141.096549 
L 288.525563 141.717587 
L 288.672297 141.717587 
L 288.819031 142.778719 
L 288.965765 142.778719 
L 289.112498 143.06967 
L 289.5527 143.16107 
L 289.846167 143.203028 
L 289.992901 143.629812 
L 290.139635 143.629812 
L 290.286369 143.84834 
L 291.313506 143.926993 
L 291.460239 144.202844 
L 292.780844 144.177362 
L 293.074311 144.315087 
L 293.367779 144.402562 
L 294.248182 144.388564 
L 294.54165 144.518102 
L 294.835117 144.350151 
L 295.128585 144.513226 
L 296.595923 144.514146 
L 296.889391 144.488228 
L 297.329592 144.610067 
L 300.117535 144.630049 
L 300.411002 144.465545 
L 300.557736 144.640612 
L 305.399952 144.704539 
L 305.546686 144.518524 
L 305.986888 144.54643 
L 306.133621 144.731838 
L 312.443176 144.641099 
L 312.589909 143.66586 
L 312.736643 143.66586 
L 312.883377 143.020213 
L 313.030111 143.020213 
L 313.176845 144.541052 
L 313.323579 144.541052 
L 313.470312 144.74577 
L 325.649219 144.734527 
L 325.795953 141.578731 
L 325.942687 141.578731 
L 326.089421 143.980875 
L 326.236155 143.980875 
L 326.382889 144.768054 
L 345.898487 144.875488 
L 347.95276 144.876803 
L 348.686429 144.862689 
L 352.94171 144.871344 
L 353.088444 142.77189 
L 353.235178 142.77189 
L 353.381911 144.276806 
L 353.528645 144.276806 
L 353.675379 144.805403 
L 389.625165 144.895149 
L 389.771899 143.839214 
L 389.918632 143.839214 
L 390.065366 144.395475 
L 390.2121 144.395475 
L 390.358834 144.863431 
L 422.49354 144.91917 
L 422.640274 144.024137 
L 422.787008 144.024137 
L 422.933742 144.208714 
L 423.080476 144.208714 
L 423.227209 144.862498 
L 432.47144 144.91636 
L 432.47144 144.91636 
" clip-path="url(#p8a2383f23e)" style="fill: none; stroke: #1f77b4; stroke-width: 1.5; stroke-linecap: square"/>
   </g>
   <g id="line2d_20">
    <path d="M 285.884354 35.797414 
L 286.031088 35.797414 
L 286.177822 61.270559 
L 286.324556 61.270559 
L 286.47129 90.839438 
L 286.618023 90.839438 
L 286.764757 107.641756 
L 286.911491 107.641756 
L 287.058225 121.52963 
L 287.204959 121.52963 
L 287.351692 130.490418 
L 287.498426 130.490418 
L 287.64516 136.263983 
L 287.791894 136.263983 
L 287.938628 140.078986 
L 288.085362 140.078986 
L 288.232095 140.306966 
L 288.378829 140.306966 
L 288.525563 141.865107 
L 288.672297 141.865107 
L 288.819031 142.581911 
L 288.965765 142.581911 
L 289.112498 142.852741 
L 289.259232 142.852741 
L 289.405966 143.089844 
L 289.846167 142.987527 
L 289.992901 143.548167 
L 290.433103 143.577275 
L 290.72657 143.727344 
L 291.020038 143.858983 
L 291.313506 143.825425 
L 291.606973 143.878524 
L 291.900441 143.860528 
L 292.047175 144.097514 
L 292.193909 144.097514 
L 292.340642 143.894524 
L 292.487376 143.894524 
L 292.63411 144.170418 
L 292.780844 144.170418 
L 293.074311 144.05164 
L 293.221045 144.249478 
L 293.661247 144.274287 
L 293.954714 144.135577 
L 294.101448 144.308776 
L 295.71552 144.38438 
L 296.008988 144.439218 
L 296.595923 144.13589 
L 296.742657 144.457523 
L 297.476326 144.490405 
L 297.62306 144.296813 
L 297.769794 144.296813 
L 297.916528 144.523019 
L 299.824067 144.562386 
L 299.970801 144.17214 
L 300.117535 144.17214 
L 300.264269 144.561359 
L 305.399952 144.62207 
L 305.546686 144.385928 
L 305.69342 144.385928 
L 305.840154 144.617248 
L 311.269305 144.71258 
L 312.149708 144.738261 
L 312.443176 144.594568 
L 312.589909 143.070462 
L 312.736643 143.070462 
L 312.883377 144.07728 
L 313.030111 144.07728 
L 313.176845 144.644893 
L 314.203981 144.734343 
L 314.937651 144.769194 
L 325.355752 144.779691 
L 325.502486 143.583639 
L 325.649219 143.583639 
L 325.795953 143.771777 
L 325.942687 143.771777 
L 326.089421 144.677384 
L 326.82309 144.778057 
L 328.877363 144.822461 
L 332.252241 144.829514 
L 345.018084 144.825431 
L 345.311551 144.709412 
L 345.605019 144.862918 
L 352.94171 144.788081 
L 353.088444 142.733131 
L 353.235178 142.733131 
L 353.381911 144.677486 
L 353.528645 144.677486 
L 353.822113 144.811178 
L 354.555782 144.848226 
L 389.625165 144.872548 
L 389.771899 142.752333 
L 389.918632 142.752333 
L 390.065366 144.823702 
L 422.49354 144.886442 
L 422.640274 143.669686 
L 422.787008 143.669686 
L 422.933742 144.824546 
L 432.47144 144.899844 
L 432.47144 144.899844 
" clip-path="url(#p8a2383f23e)" style="fill: none; stroke: #ff7f0e; stroke-width: 1.5; stroke-linecap: square"/>
   </g>
   <g id="patch_8">
    <path d="M 278.555 151.20625 
L 278.555 12.96 
" style="fill: none; stroke: #000000; stroke-linejoin: miter; stroke-linecap: square"/>
   </g>
   <g id="patch_9">
    <path d="M 439.800794 151.20625 
L 439.800794 12.96 
" style="fill: none; stroke: #000000; stroke-linejoin: miter; stroke-linecap: square"/>
   </g>
   <g id="patch_10">
    <path d="M 278.555 151.20625 
L 439.800794 151.20625 
" style="fill: none; stroke: #000000; stroke-linejoin: miter; stroke-linecap: square"/>
   </g>
   <g id="patch_11">
    <path d="M 278.555 12.96 
L 439.800794 12.96 
" style="fill: none; stroke: #000000; stroke-linejoin: miter; stroke-linecap: square"/>
   </g>
  </g>
  <g id="axes_3">
   <g id="patch_12">
    <path d="M 54.635 317.52625 
L 215.880794 317.52625 
L 215.880794 179.28 
L 54.635 179.28 
z
" style="fill: #ffffff"/>
   </g>
   <g id="matplotlib.axis_5">
    <g id="xtick_7">
     <g id="line2d_21">
      <g>
       <use xlink:href="#m2418c845e0" x="61.964354" y="317.52625" style="fill: #ffffff; stroke: #000000; stroke-width: 0.8"/>
      </g>
     </g>
     <g id="text_17">
      <!-- 0 -->
      <g transform="translate(58.146854 330.144375) scale(0.12 -0.12)">
       <use xlink:href="#DejaVuSerif-30"/>
      </g>
     </g>
    </g>
    <g id="xtick_8">
     <g id="line2d_22">
      <g>
       <use xlink:href="#m2418c845e0" x="135.331264" y="317.52625" style="fill: #ffffff; stroke: #000000; stroke-width: 0.8"/>
      </g>
     </g>
     <g id="text_18">
      <!-- 500 -->
      <g transform="translate(123.878764 330.144375) scale(0.12 -0.12)">
       <use xlink:href="#DejaVuSerif-35"/>
       <use xlink:href="#DejaVuSerif-30" x="63.623047"/>
       <use xlink:href="#DejaVuSerif-30" x="127.246094"/>
      </g>
     </g>
    </g>
    <g id="xtick_9">
     <g id="line2d_23">
      <g>
       <use xlink:href="#m2418c845e0" x="208.698174" y="317.52625" style="fill: #ffffff; stroke: #000000; stroke-width: 0.8"/>
      </g>
     </g>
     <g id="text_19">
      <!-- 1000 -->
      <g transform="translate(193.428174 330.144375) scale(0.12 -0.12)">
       <use xlink:href="#DejaVuSerif-31"/>
       <use xlink:href="#DejaVuSerif-30" x="63.623047"/>
       <use xlink:href="#DejaVuSerif-30" x="127.246094"/>
       <use xlink:href="#DejaVuSerif-30" x="190.869141"/>
      </g>
     </g>
    </g>
   </g>
   <g id="matplotlib.axis_6">
    <g id="ytick_11">
     <g id="line2d_24">
      <g>
       <use xlink:href="#m8363e13fb6" x="54.635" y="311.272493" style="fill: #ffffff; stroke: #000000; stroke-width: 0.8"/>
      </g>
     </g>
     <g id="text_20">
      <!-- 0 -->
      <g transform="translate(43.5 315.831556) scale(0.12 -0.12)">
       <use xlink:href="#DejaVuSerif-30"/>
      </g>
     </g>
    </g>
    <g id="ytick_12">
     <g id="line2d_25">
      <g>
       <use xlink:href="#m8363e13fb6" x="54.635" y="281.157762" style="fill: #ffffff; stroke: #000000; stroke-width: 0.8"/>
      </g>
     </g>
     <g id="text_21">
      <!-- 5000 -->
      <g transform="translate(20.595 285.716824) scale(0.12 -0.12)">
       <use xlink:href="#DejaVuSerif-35"/>
       <use xlink:href="#DejaVuSerif-30" x="63.623047"/>
       <use xlink:href="#DejaVuSerif-30" x="127.246094"/>
       <use xlink:href="#DejaVuSerif-30" x="190.869141"/>
      </g>
     </g>
    </g>
    <g id="ytick_13">
     <g id="line2d_26">
      <g>
       <use xlink:href="#m8363e13fb6" x="54.635" y="251.04303" style="fill: #ffffff; stroke: #000000; stroke-width: 0.8"/>
      </g>
     </g>
     <g id="text_22">
      <!-- 10000 -->
      <g transform="translate(12.96 255.602093) scale(0.12 -0.12)">
       <use xlink:href="#DejaVuSerif-31"/>
       <use xlink:href="#DejaVuSerif-30" x="63.623047"/>
       <use xlink:href="#DejaVuSerif-30" x="127.246094"/>
       <use xlink:href="#DejaVuSerif-30" x="190.869141"/>
       <use xlink:href="#DejaVuSerif-30" x="254.492188"/>
      </g>
     </g>
    </g>
    <g id="ytick_14">
     <g id="line2d_27">
      <g>
       <use xlink:href="#m8363e13fb6" x="54.635" y="220.928299" style="fill: #ffffff; stroke: #000000; stroke-width: 0.8"/>
      </g>
     </g>
     <g id="text_23">
      <!-- 15000 -->
      <g transform="translate(12.96 225.487361) scale(0.12 -0.12)">
       <use xlink:href="#DejaVuSerif-31"/>
       <use xlink:href="#DejaVuSerif-35" x="63.623047"/>
       <use xlink:href="#DejaVuSerif-30" x="127.246094"/>
       <use xlink:href="#DejaVuSerif-30" x="190.869141"/>
       <use xlink:href="#DejaVuSerif-30" x="254.492188"/>
      </g>
     </g>
    </g>
    <g id="ytick_15">
     <g id="line2d_28">
      <g>
       <use xlink:href="#m8363e13fb6" x="54.635" y="190.813567" style="fill: #ffffff; stroke: #000000; stroke-width: 0.8"/>
      </g>
     </g>
     <g id="text_24">
      <!-- 20000 -->
      <g transform="translate(12.96 195.37263) scale(0.12 -0.12)">
       <use xlink:href="#DejaVuSerif-32"/>
       <use xlink:href="#DejaVuSerif-30" x="63.623047"/>
       <use xlink:href="#DejaVuSerif-30" x="127.246094"/>
       <use xlink:href="#DejaVuSerif-30" x="190.869141"/>
       <use xlink:href="#DejaVuSerif-30" x="254.492188"/>
      </g>
     </g>
    </g>
   </g>
   <g id="line2d_29">
    <path d="M 61.964354 185.56392 
L 62.111088 185.56392 
L 62.257822 217.779609 
L 62.404556 217.779609 
L 62.55129 243.882207 
L 62.698023 243.882207 
L 62.844757 268.665082 
L 62.991491 268.665082 
L 63.138225 283.523266 
L 63.284959 283.523266 
L 63.431692 294.050707 
L 63.578426 294.050707 
L 63.72516 301.154573 
L 63.871894 301.154573 
L 64.018628 305.520599 
L 64.165362 305.520599 
L 64.312095 307.416549 
L 64.458829 307.416549 
L 64.605563 308.037587 
L 64.752297 308.037587 
L 64.899031 309.098719 
L 65.045765 309.098719 
L 65.192498 309.38967 
L 65.6327 309.48107 
L 65.926167 309.523028 
L 66.072901 309.949812 
L 66.219635 309.949812 
L 66.366369 310.16834 
L 67.393506 310.246993 
L 67.540239 310.522844 
L 68.860844 310.497362 
L 69.154311 310.635087 
L 69.447779 310.722562 
L 70.328182 310.708564 
L 70.62165 310.838102 
L 70.915117 310.670151 
L 71.208585 310.833226 
L 72.675923 310.834146 
L 72.969391 310.808228 
L 73.409592 310.930067 
L 76.197535 310.950049 
L 76.491002 310.785545 
L 76.637736 310.960612 
L 81.479952 311.024539 
L 81.626686 310.838524 
L 82.066888 310.86643 
L 82.213621 311.051838 
L 88.523176 310.961099 
L 88.669909 309.98586 
L 88.816643 309.98586 
L 88.963377 309.340213 
L 89.110111 309.340213 
L 89.256845 310.861052 
L 89.403579 310.861052 
L 89.550312 311.06577 
L 101.729219 311.054527 
L 101.875953 307.898731 
L 102.022687 307.898731 
L 102.169421 310.300875 
L 102.316155 310.300875 
L 102.462889 311.088054 
L 121.978487 311.195488 
L 124.03276 311.196803 
L 124.766429 311.182689 
L 129.02171 311.191344 
L 129.168444 309.09189 
L 129.315178 309.09189 
L 129.461911 310.596806 
L 129.608645 310.596806 
L 129.755379 311.125403 
L 165.705165 311.215149 
L 165.851899 310.159214 
L 165.998632 310.159214 
L 166.145366 310.715475 
L 166.2921 310.715475 
L 166.438834 311.183431 
L 198.57354 311.23917 
L 198.720274 310.344137 
L 198.867008 310.344137 
L 199.013742 310.528714 
L 199.160476 310.528714 
L 199.307209 311.182498 
L 208.55144 311.23636 
L 208.55144 311.23636 
" clip-path="url(#p6fb04e03d7)" style="fill: none; stroke: #1f77b4; stroke-width: 1.5; stroke-linecap: square"/>
   </g>
   <g id="line2d_30">
    <path d="M 61.964354 202.117414 
L 62.111088 202.117414 
L 62.257822 227.590559 
L 62.404556 227.590559 
L 62.55129 257.159438 
L 62.698023 257.159438 
L 62.844757 273.961756 
L 62.991491 273.961756 
L 63.138225 287.84963 
L 63.284959 287.84963 
L 63.431692 296.810418 
L 63.578426 296.810418 
L 63.72516 302.583983 
L 63.871894 302.583983 
L 64.018628 306.398986 
L 64.165362 306.398986 
L 64.312095 306.626966 
L 64.458829 306.626966 
L 64.605563 308.185107 
L 64.752297 308.185107 
L 64.899031 308.901911 
L 65.045765 308.901911 
L 65.192498 309.172741 
L 65.339232 309.172741 
L 65.485966 309.409844 
L 65.926167 309.307527 
L 66.072901 309.868167 
L 66.513103 309.897275 
L 66.80657 310.047344 
L 67.100038 310.178983 
L 67.393506 310.145425 
L 67.686973 310.198524 
L 67.980441 310.180528 
L 68.127175 310.417514 
L 68.273909 310.417514 
L 68.420642 310.214524 
L 68.567376 310.214524 
L 68.71411 310.490418 
L 68.860844 310.490418 
L 69.154311 310.37164 
L 69.301045 310.569478 
L 69.741247 310.594287 
L 70.034714 310.455577 
L 70.181448 310.628776 
L 71.79552 310.70438 
L 72.088988 310.759218 
L 72.675923 310.45589 
L 72.822657 310.777523 
L 73.556326 310.810405 
L 73.70306 310.616813 
L 73.849794 310.616813 
L 73.996528 310.843019 
L 75.904067 310.882386 
L 76.050801 310.49214 
L 76.197535 310.49214 
L 76.344269 310.881359 
L 81.479952 310.94207 
L 81.626686 310.705928 
L 81.77342 310.705928 
L 81.920154 310.937248 
L 87.349305 311.03258 
L 88.229708 311.058261 
L 88.523176 310.914568 
L 88.669909 309.390462 
L 88.816643 309.390462 
L 88.963377 310.39728 
L 89.110111 310.39728 
L 89.256845 310.964893 
L 90.283981 311.054343 
L 91.017651 311.089194 
L 101.435752 311.099691 
L 101.582486 309.903639 
L 101.729219 309.903639 
L 101.875953 310.091777 
L 102.022687 310.091777 
L 102.169421 310.997384 
L 102.90309 311.098057 
L 104.957363 311.142461 
L 108.332241 311.149514 
L 121.098084 311.145431 
L 121.391551 311.029412 
L 121.685019 311.182918 
L 129.02171 311.108081 
L 129.168444 309.053131 
L 129.315178 309.053131 
L 129.461911 310.997486 
L 129.608645 310.997486 
L 129.902113 311.131178 
L 130.635782 311.168226 
L 165.705165 311.192548 
L 165.851899 309.072333 
L 165.998632 309.072333 
L 166.145366 311.143702 
L 198.57354 311.206442 
L 198.720274 309.989686 
L 198.867008 309.989686 
L 199.013742 311.144546 
L 208.55144 311.219844 
L 208.55144 311.219844 
" clip-path="url(#p6fb04e03d7)" style="fill: none; stroke: #ff7f0e; stroke-width: 1.5; stroke-linecap: square"/>
   </g>
   <g id="patch_13">
    <path d="M 54.635 317.52625 
L 54.635 179.28 
" style="fill: none; stroke: #000000; stroke-linejoin: miter; stroke-linecap: square"/>
   </g>
   <g id="patch_14">
    <path d="M 215.880794 317.52625 
L 215.880794 179.28 
" style="fill: none; stroke: #000000; stroke-linejoin: miter; stroke-linecap: square"/>
   </g>
   <g id="patch_15">
    <path d="M 54.635 317.52625 
L 215.880794 317.52625 
" style="fill: none; stroke: #000000; stroke-linejoin: miter; stroke-linecap: square"/>
   </g>
   <g id="patch_16">
    <path d="M 54.635 179.28 
L 215.880794 179.28 
" style="fill: none; stroke: #000000; stroke-linejoin: miter; stroke-linecap: square"/>
   </g>
  </g>
  <g id="axes_4">
   <g id="patch_17">
    <path d="M 278.555 317.52625 
L 439.800794 317.52625 
L 439.800794 179.28 
L 278.555 179.28 
z
" style="fill: #ffffff"/>
   </g>
   <g id="matplotlib.axis_7">
    <g id="xtick_10">
     <g id="line2d_31">
      <g>
       <use xlink:href="#m2418c845e0" x="285.884354" y="317.52625" style="fill: #ffffff; stroke: #000000; stroke-width: 0.8"/>
      </g>
     </g>
     <g id="text_25">
      <!-- 0 -->
      <g transform="translate(282.066854 330.144375) scale(0.12 -0.12)">
       <use xlink:href="#DejaVuSerif-30"/>
      </g>
     </g>
    </g>
    <g id="xtick_11">
     <g id="line2d_32">
      <g>
       <use xlink:href="#m2418c845e0" x="359.251264" y="317.52625" style="fill: #ffffff; stroke: #000000; stroke-width: 0.8"/>
      </g>
     </g>
     <g id="text_26">
      <!-- 500 -->
      <g transform="translate(347.798764 330.144375) scale(0.12 -0.12)">
       <use xlink:href="#DejaVuSerif-35"/>
       <use xlink:href="#DejaVuSerif-30" x="63.623047"/>
       <use xlink:href="#DejaVuSerif-30" x="127.246094"/>
      </g>
     </g>
    </g>
    <g id="xtick_12">
     <g id="line2d_33">
      <g>
       <use xlink:href="#m2418c845e0" x="432.618174" y="317.52625" style="fill: #ffffff; stroke: #000000; stroke-width: 0.8"/>
      </g>
     </g>
     <g id="text_27">
      <!-- 1000 -->
      <g transform="translate(417.348174 330.144375) scale(0.12 -0.12)">
       <use xlink:href="#DejaVuSerif-31"/>
       <use xlink:href="#DejaVuSerif-30" x="63.623047"/>
       <use xlink:href="#DejaVuSerif-30" x="127.246094"/>
       <use xlink:href="#DejaVuSerif-30" x="190.869141"/>
      </g>
     </g>
    </g>
   </g>
   <g id="matplotlib.axis_8">
    <g id="ytick_16">
     <g id="line2d_34">
      <g>
       <use xlink:href="#m8363e13fb6" x="278.555" y="311.271835" style="fill: #ffffff; stroke: #000000; stroke-width: 0.8"/>
      </g>
     </g>
     <g id="text_28">
      <!-- 0 -->
      <g transform="translate(267.42 315.830898) scale(0.12 -0.12)">
       <use xlink:href="#DejaVuSerif-30"/>
      </g>
     </g>
    </g>
    <g id="ytick_17">
     <g id="line2d_35">
      <g>
       <use xlink:href="#m8363e13fb6" x="278.555" y="281.706701" style="fill: #ffffff; stroke: #000000; stroke-width: 0.8"/>
      </g>
     </g>
     <g id="text_29">
      <!-- 5000 -->
      <g transform="translate(244.515 286.265763) scale(0.12 -0.12)">
       <use xlink:href="#DejaVuSerif-35"/>
       <use xlink:href="#DejaVuSerif-30" x="63.623047"/>
       <use xlink:href="#DejaVuSerif-30" x="127.246094"/>
       <use xlink:href="#DejaVuSerif-30" x="190.869141"/>
      </g>
     </g>
    </g>
    <g id="ytick_18">
     <g id="line2d_36">
      <g>
       <use xlink:href="#m8363e13fb6" x="278.555" y="252.141566" style="fill: #ffffff; stroke: #000000; stroke-width: 0.8"/>
      </g>
     </g>
     <g id="text_30">
      <!-- 10000 -->
      <g transform="translate(236.88 256.700629) scale(0.12 -0.12)">
       <use xlink:href="#DejaVuSerif-31"/>
       <use xlink:href="#DejaVuSerif-30" x="63.623047"/>
       <use xlink:href="#DejaVuSerif-30" x="127.246094"/>
       <use xlink:href="#DejaVuSerif-30" x="190.869141"/>
       <use xlink:href="#DejaVuSerif-30" x="254.492188"/>
      </g>
     </g>
    </g>
    <g id="ytick_19">
     <g id="line2d_37">
      <g>
       <use xlink:href="#m8363e13fb6" x="278.555" y="222.576431" style="fill: #ffffff; stroke: #000000; stroke-width: 0.8"/>
      </g>
     </g>
     <g id="text_31">
      <!-- 15000 -->
      <g transform="translate(236.88 227.135494) scale(0.12 -0.12)">
       <use xlink:href="#DejaVuSerif-31"/>
       <use xlink:href="#DejaVuSerif-35" x="63.623047"/>
       <use xlink:href="#DejaVuSerif-30" x="127.246094"/>
       <use xlink:href="#DejaVuSerif-30" x="190.869141"/>
       <use xlink:href="#DejaVuSerif-30" x="254.492188"/>
      </g>
     </g>
    </g>
    <g id="ytick_20">
     <g id="line2d_38">
      <g>
       <use xlink:href="#m8363e13fb6" x="278.555" y="193.011297" style="fill: #ffffff; stroke: #000000; stroke-width: 0.8"/>
      </g>
     </g>
     <g id="text_32">
      <!-- 20000 -->
      <g transform="translate(236.88 197.570359) scale(0.12 -0.12)">
       <use xlink:href="#DejaVuSerif-32"/>
       <use xlink:href="#DejaVuSerif-30" x="63.623047"/>
       <use xlink:href="#DejaVuSerif-30" x="127.246094"/>
       <use xlink:href="#DejaVuSerif-30" x="190.869141"/>
       <use xlink:href="#DejaVuSerif-30" x="254.492188"/>
      </g>
     </g>
    </g>
   </g>
   <g id="line2d_39">
    <path d="M 285.884354 185.56392 
L 286.031088 185.56392 
L 286.177822 217.025764 
L 286.324556 217.025764 
L 286.47129 241.018332 
L 286.618023 241.018332 
L 286.764757 265.010042 
L 286.911491 265.010042 
L 287.058225 279.708857 
L 287.204959 279.708857 
L 287.351692 292.427638 
L 287.498426 292.427638 
L 287.64516 300.270958 
L 287.791894 300.270958 
L 287.938628 304.65143 
L 288.085362 304.65143 
L 288.232095 306.694066 
L 288.378829 306.694066 
L 288.525563 308.248186 
L 288.672297 308.248186 
L 288.819031 308.773185 
L 288.965765 308.773185 
L 289.112498 309.192256 
L 289.259232 309.192256 
L 289.405966 309.478778 
L 289.5527 309.478778 
L 289.699434 309.755899 
L 289.846167 309.755899 
L 289.992901 309.966263 
L 290.433103 310.036959 
L 290.72657 310.112778 
L 291.020038 310.087076 
L 291.166772 310.293373 
L 291.900441 310.377026 
L 292.487376 310.547912 
L 292.780844 310.482686 
L 293.074311 310.608212 
L 293.514513 310.305161 
L 293.661247 310.305161 
L 293.807981 310.666006 
L 296.008988 310.715241 
L 296.449189 310.866798 
L 298.943664 310.881235 
L 299.237132 310.743316 
L 299.383866 310.931602 
L 302.171808 310.880593 
L 302.318542 307.920158 
L 302.465276 307.920158 
L 302.61201 310.716876 
L 302.758744 310.716876 
L 302.905477 310.97499 
L 309.801967 311.079864 
L 310.095435 311.092008 
L 310.388902 310.999806 
L 310.975837 311.093274 
L 313.76378 311.090748 
L 315.377852 311.082954 
L 315.524586 308.892288 
L 315.67132 308.892288 
L 315.818054 309.346522 
L 315.964787 309.346522 
L 316.111521 311.013864 
L 318.605996 311.12276 
L 322.421075 311.131194 
L 333.866313 311.121192 
L 334.013047 309.326381 
L 334.159781 309.326381 
L 334.306515 310.03489 
L 334.453249 310.03489 
L 334.599982 311.077552 
L 346.191954 311.140219 
L 346.338688 309.96885 
L 346.485422 309.96885 
L 346.632156 310.461953 
L 346.778889 310.461953 
L 346.925623 311.067719 
L 347.659292 311.1726 
L 350.593969 311.192274 
L 359.984933 311.199007 
L 365.414085 311.214952 
L 366.147754 311.187451 
L 366.294487 310.963799 
L 366.441221 310.963799 
L 366.587955 309.346764 
L 366.734689 309.346764 
L 366.881423 311.13477 
L 383.755812 311.210826 
L 383.902546 311.016489 
L 384.342747 310.9229 
L 384.489481 310.238707 
L 384.636215 310.238707 
L 384.782949 310.896111 
L 384.929683 310.896111 
L 385.076416 311.180942 
L 432.47144 311.23676 
L 432.47144 311.23676 
" clip-path="url(#pe5a2b6df49)" style="fill: none; stroke: #1f77b4; stroke-width: 1.5; stroke-linecap: square"/>
   </g>
   <g id="line2d_40">
    <path d="M 285.884354 204.65505 
L 286.031088 204.65505 
L 286.177822 228.855912 
L 286.324556 228.855912 
L 286.47129 254.005715 
L 286.618023 254.005715 
L 286.764757 274.659713 
L 286.911491 274.659713 
L 287.058225 286.032592 
L 287.204959 286.032592 
L 287.351692 297.226699 
L 287.498426 297.226699 
L 287.64516 302.398048 
L 287.791894 302.398048 
L 287.938628 303.206213 
L 288.085362 303.206213 
L 288.232095 306.98276 
L 288.378829 306.98276 
L 288.525563 308.21618 
L 288.672297 308.21618 
L 288.819031 308.792449 
L 288.965765 308.792449 
L 289.112498 308.568004 
L 289.259232 308.568004 
L 289.405966 309.32497 
L 289.5527 309.32497 
L 289.699434 309.683376 
L 291.020038 309.674571 
L 291.166772 310.16568 
L 291.606973 310.139762 
L 291.753707 309.905379 
L 291.900441 309.905379 
L 292.047175 310.290122 
L 292.193909 310.290122 
L 292.487376 310.165576 
L 292.63411 310.3688 
L 293.661247 310.470584 
L 293.954714 310.549432 
L 294.54165 310.564512 
L 294.835117 310.487154 
L 294.981851 310.684961 
L 295.128585 310.684961 
L 295.275319 310.472409 
L 295.422053 310.472409 
L 295.568786 309.588909 
L 295.71552 309.588909 
L 295.862254 310.67394 
L 297.769794 310.710583 
L 298.063261 310.808098 
L 299.237132 310.720245 
L 299.5306 310.861959 
L 300.411002 310.843819 
L 300.70447 310.694344 
L 300.997938 310.859174 
L 301.438139 310.934149 
L 301.878341 310.933222 
L 302.025074 310.018566 
L 302.465276 309.952559 
L 302.61201 310.889618 
L 304.519549 310.989911 
L 305.840154 311.007276 
L 315.377852 310.979887 
L 315.524586 307.141651 
L 315.67132 307.141651 
L 315.818054 310.93961 
L 316.258255 311.025918 
L 316.991924 311.093901 
L 333.866313 311.130255 
L 334.013047 305.568942 
L 334.159781 305.568942 
L 334.306515 310.974241 
L 334.453249 310.974241 
L 334.746716 311.097971 
L 335.480385 311.143932 
L 346.191954 311.088389 
L 346.338688 310.651076 
L 346.485422 310.651076 
L 346.632156 310.96806 
L 346.778889 310.96806 
L 346.925623 311.143618 
L 366.147754 311.168799 
L 366.294487 307.948494 
L 366.441221 307.948494 
L 366.587955 311.085346 
L 369.669365 311.19635 
L 383.168877 311.201615 
L 383.755812 311.202112 
L 383.902546 310.964428 
L 384.04928 310.964428 
L 384.342747 311.087748 
L 384.489481 310.19746 
L 384.636215 310.19746 
L 384.782949 311.138073 
L 432.47144 311.198104 
L 432.47144 311.198104 
" clip-path="url(#pe5a2b6df49)" style="fill: none; stroke: #ff7f0e; stroke-width: 1.5; stroke-linecap: square"/>
   </g>
   <g id="patch_18">
    <path d="M 278.555 317.52625 
L 278.555 179.28 
" style="fill: none; stroke: #000000; stroke-linejoin: miter; stroke-linecap: square"/>
   </g>
   <g id="patch_19">
    <path d="M 439.800794 317.52625 
L 439.800794 179.28 
" style="fill: none; stroke: #000000; stroke-linejoin: miter; stroke-linecap: square"/>
   </g>
   <g id="patch_20">
    <path d="M 278.555 317.52625 
L 439.800794 317.52625 
" style="fill: none; stroke: #000000; stroke-linejoin: miter; stroke-linecap: square"/>
   </g>
   <g id="patch_21">
    <path d="M 278.555 179.28 
L 439.800794 179.28 
" style="fill: none; stroke: #000000; stroke-linejoin: miter; stroke-linecap: square"/>
   </g>
   <g id="legend_1">
    <g id="patch_22">
     <path d="M 363.707669 224.1075 
L 431.400794 224.1075 
Q 433.800794 224.1075 433.800794 221.7075 
L 433.800794 187.68 
Q 433.800794 185.28 431.400794 185.28 
L 363.707669 185.28 
Q 361.307669 185.28 361.307669 187.68 
L 361.307669 221.7075 
Q 361.307669 224.1075 363.707669 224.1075 
z
" style="fill: #ffffff; opacity: 0.8; stroke: #cccccc; stroke-linejoin: miter"/>
    </g>
    <g id="line2d_41">
     <path d="M 366.107669 194.998125 
L 378.107669 194.998125 
L 390.107669 194.998125 
" style="fill: none; stroke: #1f77b4; stroke-width: 1.5; stroke-linecap: square"/>
    </g>
    <g id="text_33">
     <!-- train -->
     <g transform="translate(399.707669 199.198125) scale(0.12 -0.12)">
      <defs>
       <path id="DejaVuSerif-74" d="M 691 2988 
L 184 2988 
L 184 3322 
L 691 3322 
L 691 4353 
L 1269 4353 
L 1269 3322 
L 2350 3322 
L 2350 2988 
L 1269 2988 
L 1269 878 
Q 1269 456 1350 337 
Q 1431 219 1650 219 
Q 1875 219 1978 351 
Q 2081 484 2088 781 
L 2522 781 
Q 2497 328 2275 118 
Q 2053 -91 1600 -91 
Q 1103 -91 897 129 
Q 691 350 691 878 
L 691 2988 
z
" transform="scale(0.015625)"/>
       <path id="DejaVuSerif-72" d="M 3059 3328 
L 3059 2497 
L 2728 2497 
Q 2713 2744 2591 2866 
Q 2469 2988 2234 2988 
Q 1809 2988 1582 2694 
Q 1356 2400 1356 1850 
L 1356 331 
L 2022 331 
L 2022 0 
L 263 0 
L 263 331 
L 781 331 
L 781 2994 
L 231 2994 
L 231 3322 
L 1356 3322 
L 1356 2731 
Q 1525 3078 1790 3245 
Q 2056 3413 2438 3413 
Q 2578 3413 2733 3391 
Q 2888 3369 3059 3328 
z
" transform="scale(0.015625)"/>
       <path id="DejaVuSerif-61" d="M 2547 1044 
L 2547 1747 
L 1806 1747 
Q 1378 1747 1168 1562 
Q 959 1378 959 997 
Q 959 650 1171 447 
Q 1384 244 1747 244 
Q 2106 244 2326 466 
Q 2547 688 2547 1044 
z
M 3122 2075 
L 3122 331 
L 3634 331 
L 3634 0 
L 2547 0 
L 2547 359 
Q 2356 128 2106 18 
Q 1856 -91 1522 -91 
Q 969 -91 644 203 
Q 319 497 319 997 
Q 319 1513 691 1797 
Q 1063 2081 1741 2081 
L 2547 2081 
L 2547 2309 
Q 2547 2688 2317 2895 
Q 2088 3103 1672 3103 
Q 1328 3103 1125 2947 
Q 922 2791 872 2484 
L 575 2484 
L 575 3156 
Q 875 3284 1158 3348 
Q 1441 3413 1709 3413 
Q 2400 3413 2761 3070 
Q 3122 2728 3122 2075 
z
" transform="scale(0.015625)"/>
       <path id="DejaVuSerif-69" d="M 622 4353 
Q 622 4497 726 4603 
Q 831 4709 978 4709 
Q 1122 4709 1226 4603 
Q 1331 4497 1331 4353 
Q 1331 4206 1228 4103 
Q 1125 4000 978 4000 
Q 831 4000 726 4103 
Q 622 4206 622 4353 
z
M 1356 331 
L 1900 331 
L 1900 0 
L 231 0 
L 231 331 
L 781 331 
L 781 2988 
L 231 2988 
L 231 3322 
L 1356 3322 
L 1356 331 
z
" transform="scale(0.015625)"/>
       <path id="DejaVuSerif-6e" d="M 263 0 
L 263 331 
L 781 331 
L 781 2988 
L 231 2988 
L 231 3322 
L 1356 3322 
L 1356 2731 
Q 1516 3069 1770 3241 
Q 2025 3413 2363 3413 
Q 2913 3413 3172 3097 
Q 3431 2781 3431 2113 
L 3431 331 
L 3944 331 
L 3944 0 
L 2356 0 
L 2356 331 
L 2853 331 
L 2853 1931 
Q 2853 2541 2703 2767 
Q 2553 2994 2175 2994 
Q 1775 2994 1565 2701 
Q 1356 2409 1356 1850 
L 1356 331 
L 1856 331 
L 1856 0 
L 263 0 
z
" transform="scale(0.015625)"/>
      </defs>
      <use xlink:href="#DejaVuSerif-74"/>
      <use xlink:href="#DejaVuSerif-72" x="40.185547"/>
      <use xlink:href="#DejaVuSerif-61" x="87.988281"/>
      <use xlink:href="#DejaVuSerif-69" x="147.607422"/>
      <use xlink:href="#DejaVuSerif-6e" x="179.589844"/>
     </g>
    </g>
    <g id="line2d_42">
     <path d="M 366.107669 212.611875 
L 378.107669 212.611875 
L 390.107669 212.611875 
" style="fill: none; stroke: #ff7f0e; stroke-width: 1.5; stroke-linecap: square"/>
    </g>
    <g id="text_34">
     <!-- valid -->
     <g transform="translate(399.707669 216.811875) scale(0.12 -0.12)">
      <defs>
       <path id="DejaVuSerif-76" d="M 1581 0 
L 359 2988 
L -19 2988 
L -19 3322 
L 1509 3322 
L 1509 2988 
L 978 2988 
L 1913 703 
L 2847 2988 
L 2350 2988 
L 2350 3322 
L 3597 3322 
L 3597 2988 
L 3225 2988 
L 2003 0 
L 1581 0 
z
" transform="scale(0.015625)"/>
       <path id="DejaVuSerif-6c" d="M 1313 331 
L 1856 331 
L 1856 0 
L 184 0 
L 184 331 
L 738 331 
L 738 4531 
L 184 4531 
L 184 4863 
L 1313 4863 
L 1313 331 
z
" transform="scale(0.015625)"/>
       <path id="DejaVuSerif-64" d="M 3359 331 
L 3909 331 
L 3909 0 
L 2784 0 
L 2784 519 
Q 2616 206 2355 57 
Q 2094 -91 1709 -91 
Q 1097 -91 708 395 
Q 319 881 319 1663 
Q 319 2444 706 2928 
Q 1094 3413 1709 3413 
Q 2094 3413 2355 3264 
Q 2616 3116 2784 2803 
L 2784 4531 
L 2241 4531 
L 2241 4863 
L 3359 4863 
L 3359 331 
z
M 2784 1497 
L 2784 1825 
Q 2784 2422 2554 2737 
Q 2325 3053 1888 3053 
Q 1444 3053 1217 2703 
Q 991 2353 991 1663 
Q 991 975 1217 622 
Q 1444 269 1888 269 
Q 2325 269 2554 583 
Q 2784 897 2784 1497 
z
" transform="scale(0.015625)"/>
      </defs>
      <use xlink:href="#DejaVuSerif-76"/>
      <use xlink:href="#DejaVuSerif-61" x="56.494141"/>
      <use xlink:href="#DejaVuSerif-6c" x="116.113281"/>
      <use xlink:href="#DejaVuSerif-69" x="148.095703"/>
      <use xlink:href="#DejaVuSerif-64" x="180.078125"/>
     </g>
    </g>
   </g>
  </g>
 </g>
 <defs>
  <clipPath id="pe41e634565">
   <rect x="54.635" y="12.96" width="161.245794" height="138.24625"/>
  </clipPath>
  <clipPath id="p8a2383f23e">
   <rect x="278.555" y="12.96" width="161.245794" height="138.24625"/>
  </clipPath>
  <clipPath id="p6fb04e03d7">
   <rect x="54.635" y="179.28" width="161.245794" height="138.24625"/>
  </clipPath>
  <clipPath id="pe5a2b6df49">
   <rect x="278.555" y="179.28" width="161.245794" height="138.24625"/>
  </clipPath>
 </defs>
</svg>
